<svg xmlns="http://www.w3.org/2000/svg" xmlns:xlink="http://www.w3.org/1999/xlink" width="500" zoomAndPan="magnify" viewBox="0 0 375 374.999991" height="500" preserveAspectRatio="xMidYMid meet" version="1.0"><defs><clipPath id="0ff1500e46"><path d="M 82.664062 163.183594 L 170.414062 163.183594 L 170.414062 286.933594 L 82.664062 286.933594 Z M 82.664062 163.183594 " clip-rule="nonzero"/></clipPath><clipPath id="ddc3daa81e"><path d="M 121 117 L 203 117 L 203 202 L 121 202 Z M 121 117 " clip-rule="nonzero"/></clipPath><clipPath id="c518043a42"><path d="M 116.117188 127.660156 L 197.65625 110.875 L 213.535156 188.007812 L 131.992188 204.792969 Z M 116.117188 127.660156 " clip-rule="nonzero"/></clipPath><clipPath id="7b114e6287"><path d="M 116.117188 127.660156 L 197.65625 110.875 L 213.535156 188.007812 L 131.992188 204.792969 Z M 116.117188 127.660156 " clip-rule="nonzero"/></clipPath><clipPath id="9c405bec09"><path d="M 121.523438 153 L 136.277344 163.917969 L 137.9375 163.578125 L 140.339844 159.738281 L 148.605469 199.902344 L 149.40625 201.191406 L 195.710938 191.511719 L 196.914062 190.246094 L 188.289062 150.304688 L 192.425781 152.941406 L 193.773438 152.375 L 202.816406 136.847656 L 202.414062 134.894531 L 183.527344 121.339844 L 165.949219 117.402344 C 165.949219 117.402344 161.484375 125.441406 148.519531 121.28125 L 134.410156 130.289062 L 121.519531 153.003906 Z M 121.523438 153 " clip-rule="nonzero"/></clipPath><radialGradient gradientTransform="matrix(0.236873, 1.150698, -0.808232, 0.166356, 471.843533, -116.087487)" gradientUnits="userSpaceOnUse" r="66.008514" cx="175.679779" id="54e511574c" cy="431.352109" fx="175.679779" fy="431.352109"><stop stop-opacity="1" stop-color="rgb(49.398804%, 85.099792%, 34.098816%)" offset="0"/><stop stop-opacity="1" stop-color="rgb(49.398804%, 85.099792%, 34.098816%)" offset="1"/></radialGradient><clipPath id="9f36be0b13"><path d="M 134 131 L 141 131 L 141 157 L 134 157 Z M 134 131 " clip-rule="nonzero"/></clipPath><clipPath id="81e611cba3"><path d="M 116.117188 127.660156 L 197.65625 110.875 L 213.535156 188.007812 L 131.992188 204.792969 Z M 116.117188 127.660156 " clip-rule="nonzero"/></clipPath><clipPath id="7751fb3b86"><path d="M 116.117188 127.660156 L 197.65625 110.875 L 213.535156 188.007812 L 131.992188 204.792969 Z M 116.117188 127.660156 " clip-rule="nonzero"/></clipPath><clipPath id="1f07e3e9eb"><path d="M 145 118 L 171 118 L 171 134 L 145 134 Z M 145 118 " clip-rule="nonzero"/></clipPath><clipPath id="912bc66c13"><path d="M 116.117188 127.660156 L 197.65625 110.875 L 213.535156 188.007812 L 131.992188 204.792969 Z M 116.117188 127.660156 " clip-rule="nonzero"/></clipPath><clipPath id="1726c2d02d"><path d="M 116.117188 127.660156 L 197.65625 110.875 L 213.535156 188.007812 L 131.992188 204.792969 Z M 116.117188 127.660156 " clip-rule="nonzero"/></clipPath><clipPath id="41d9bb815e"><path d="M 148 119 L 168 119 L 168 129 L 148 129 Z M 148 119 " clip-rule="nonzero"/></clipPath><clipPath id="40540a6a35"><path d="M 116.117188 127.660156 L 197.65625 110.875 L 213.535156 188.007812 L 131.992188 204.792969 Z M 116.117188 127.660156 " clip-rule="nonzero"/></clipPath><clipPath id="924c7cb3c4"><path d="M 116.117188 127.660156 L 197.65625 110.875 L 213.535156 188.007812 L 131.992188 204.792969 Z M 116.117188 127.660156 " clip-rule="nonzero"/></clipPath><clipPath id="cb1efe33c5"><path d="M 149 188 L 196 188 L 196 199 L 149 199 Z M 149 188 " clip-rule="nonzero"/></clipPath><clipPath id="9a20f6f1ad"><path d="M 116.117188 127.660156 L 197.65625 110.875 L 213.535156 188.007812 L 131.992188 204.792969 Z M 116.117188 127.660156 " clip-rule="nonzero"/></clipPath><clipPath id="75bef244a9"><path d="M 116.117188 127.660156 L 197.65625 110.875 L 213.535156 188.007812 L 131.992188 204.792969 Z M 116.117188 127.660156 " clip-rule="nonzero"/></clipPath><clipPath id="6259c4fd89"><path d="M 191 134 L 202 134 L 202 151 L 191 151 Z M 191 134 " clip-rule="nonzero"/></clipPath><clipPath id="e84bda567f"><path d="M 116.117188 127.660156 L 197.65625 110.875 L 213.535156 188.007812 L 131.992188 204.792969 Z M 116.117188 127.660156 " clip-rule="nonzero"/></clipPath><clipPath id="537439b1c1"><path d="M 116.117188 127.660156 L 197.65625 110.875 L 213.535156 188.007812 L 131.992188 204.792969 Z M 116.117188 127.660156 " clip-rule="nonzero"/></clipPath><clipPath id="1495ac2ab9"><path d="M 123 150 L 138 150 L 138 162 L 123 162 Z M 123 150 " clip-rule="nonzero"/></clipPath><clipPath id="88d3cdae14"><path d="M 116.117188 127.660156 L 197.65625 110.875 L 213.535156 188.007812 L 131.992188 204.792969 Z M 116.117188 127.660156 " clip-rule="nonzero"/></clipPath><clipPath id="d57db262bf"><path d="M 116.117188 127.660156 L 197.65625 110.875 L 213.535156 188.007812 L 131.992188 204.792969 Z M 116.117188 127.660156 " clip-rule="nonzero"/></clipPath><clipPath id="702e46a2c1"><path d="M 181 122 L 188 122 L 188 148 L 181 148 Z M 181 122 " clip-rule="nonzero"/></clipPath><clipPath id="6fa1204748"><path d="M 116.117188 127.660156 L 197.65625 110.875 L 213.535156 188.007812 L 131.992188 204.792969 Z M 116.117188 127.660156 " clip-rule="nonzero"/></clipPath><clipPath id="f80f5127d5"><path d="M 116.117188 127.660156 L 197.65625 110.875 L 213.535156 188.007812 L 131.992188 204.792969 Z M 116.117188 127.660156 " clip-rule="nonzero"/></clipPath><clipPath id="5324b244b5"><path d="M 208 88.433594 L 251 88.433594 L 251 131 L 208 131 Z M 208 88.433594 " clip-rule="nonzero"/></clipPath><clipPath id="aa7520cbc2"><path d="M 181 138 L 291 138 L 291 286.433594 L 181 286.433594 Z M 181 138 " clip-rule="nonzero"/></clipPath></defs><g clip-path="url(#0ff1500e46)"><path fill="#000000" d="M 169.992188 190.410156 L 163.277344 168.960938 C 162.179688 165.523438 159.027344 163.183594 155.464844 163.183594 L 97.613281 163.183594 C 94.050781 163.183594 90.898438 165.523438 89.800781 168.960938 L 83.082031 190.410156 C 82.808594 191.234375 82.671875 192.058594 82.671875 192.886719 L 82.671875 278.683594 C 82.671875 283.222656 86.375 286.933594 90.898438 286.933594 L 96.378906 286.933594 C 98.984375 286.933594 101.453125 285.699219 102.960938 283.636719 L 107.894531 277.035156 C 108.445312 276.347656 109.265625 275.933594 110.089844 275.933594 L 142.988281 275.933594 C 143.8125 275.933594 144.632812 276.347656 145.183594 277.035156 L 150.117188 283.636719 C 151.625 285.699219 154.09375 286.933594 156.695312 286.933594 L 162.179688 286.933594 C 166.703125 286.933594 170.40625 283.222656 170.40625 278.683594 L 170.40625 192.886719 C 170.40625 192.058594 170.269531 191.234375 169.992188 190.410156 Z M 95.007812 170.609375 C 95.421875 169.511719 96.378906 168.683594 97.613281 168.683594 L 155.324219 168.683594 C 156.558594 168.683594 157.519531 169.511719 157.929688 170.609375 L 163.960938 189.308594 L 149.429688 189.308594 C 148.199219 185.324219 144.496094 182.433594 140.246094 182.433594 L 112.832031 182.433594 C 108.445312 182.433594 104.878906 185.324219 103.644531 189.308594 L 89.113281 189.308594 Z M 144.359375 192.058594 C 144.359375 194.261719 142.578125 196.183594 140.246094 196.183594 L 112.832031 196.183594 C 110.5 196.183594 108.71875 194.261719 108.71875 192.058594 C 108.71875 189.722656 110.5 187.933594 112.832031 187.933594 L 140.246094 187.933594 C 142.578125 187.933594 144.359375 189.722656 144.359375 192.058594 Z M 164.921875 278.683594 C 164.921875 280.199219 163.6875 281.433594 162.179688 281.433594 L 156.695312 281.433594 C 155.875 281.433594 155.050781 281.023438 154.503906 280.335938 L 149.570312 273.734375 C 148.0625 271.671875 145.59375 270.433594 142.988281 270.433594 L 110.089844 270.433594 C 107.484375 270.433594 105.015625 271.671875 103.507812 273.734375 L 98.574219 280.335938 C 98.023438 281.023438 97.203125 281.433594 96.378906 281.433594 L 90.898438 281.433594 C 89.390625 281.433594 88.15625 280.199219 88.15625 278.683594 L 88.15625 194.808594 L 103.644531 194.808594 C 104.878906 198.796875 108.582031 201.683594 112.832031 201.683594 L 140.246094 201.683594 C 144.632812 201.683594 148.199219 198.796875 149.429688 194.808594 L 164.921875 194.808594 Z M 146.277344 237.296875 L 151.761719 246.371094 C 152.722656 248.023438 152.859375 250.085938 151.898438 251.871094 C 150.941406 253.523438 149.292969 254.621094 147.375 254.621094 L 134.625 254.621094 L 137.640625 257.648438 C 138.738281 258.746094 138.738281 260.398438 137.640625 261.496094 C 137.09375 262.046875 136.410156 262.324219 135.722656 262.324219 C 135.039062 262.324219 134.351562 262.046875 133.804688 261.496094 L 126.265625 253.796875 C 125.167969 252.699219 125.167969 251.046875 126.265625 249.949219 L 133.804688 242.246094 C 134.902344 241.148438 136.546875 241.148438 137.640625 242.246094 C 138.738281 243.347656 138.738281 244.996094 137.640625 246.097656 L 134.625 249.121094 L 147.101562 249.121094 L 141.617188 240.183594 C 140.796875 238.949219 141.207031 237.160156 142.578125 236.472656 C 143.8125 235.511719 145.59375 235.921875 146.277344 237.296875 Z M 120.78125 251.734375 C 120.78125 253.246094 119.546875 254.484375 118.039062 254.484375 L 106.25 254.484375 C 104.332031 254.484375 102.6875 253.523438 101.726562 251.734375 C 100.765625 250.085938 100.765625 248.023438 101.863281 246.234375 L 108.03125 236.058594 L 103.78125 237.023438 C 102.273438 237.296875 100.902344 236.335938 100.492188 234.960938 C 100.21875 233.449219 101.179688 232.074219 102.6875 231.660156 L 113.105469 229.460938 C 113.789062 229.324219 114.613281 229.460938 115.160156 229.871094 C 115.847656 230.285156 116.257812 230.972656 116.394531 231.660156 L 118.449219 242.386719 C 118.726562 243.898438 117.765625 245.273438 116.257812 245.546875 C 116.121094 245.546875 115.847656 245.546875 115.710938 245.546875 C 114.476562 245.546875 113.242188 244.585938 112.96875 243.347656 L 112.28125 239.636719 L 106.660156 248.984375 L 118.039062 248.984375 C 119.546875 248.984375 120.78125 250.222656 120.78125 251.734375 Z M 126.8125 215.710938 L 121.328125 224.785156 C 120.507812 226.023438 118.863281 226.433594 117.492188 225.746094 C 116.257812 224.921875 115.847656 223.273438 116.53125 221.898438 L 122.289062 212.410156 C 123.25 210.898438 124.894531 209.933594 126.8125 209.933594 C 128.59375 209.933594 130.378906 210.898438 131.199219 212.410156 L 137.230469 222.308594 L 137.917969 218.597656 C 138.191406 217.085938 139.699219 216.121094 141.207031 216.398438 C 142.714844 216.671875 143.675781 218.183594 143.398438 219.558594 L 141.34375 230.558594 C 141.207031 231.246094 140.796875 231.933594 140.109375 232.347656 C 139.699219 232.621094 139.148438 232.761719 138.601562 232.761719 C 138.464844 232.761719 138.191406 232.761719 138.054688 232.761719 L 127.636719 230.558594 C 126.128906 230.285156 125.167969 228.773438 125.441406 227.261719 C 125.714844 225.746094 127.222656 224.785156 128.730469 225.199219 L 132.980469 226.160156 Z M 126.8125 215.710938 " fill-opacity="1" fill-rule="nonzero"/></g><g clip-path="url(#ddc3daa81e)"><g clip-path="url(#c518043a42)"><g clip-path="url(#7b114e6287)"><g clip-path="url(#9c405bec09)"><path fill="url(#54e511574c)" d="M 199.511719 101.347656 L 104.972656 120.804688 L 124.824219 217.242188 L 219.363281 197.785156 Z M 199.511719 101.347656 " fill-rule="nonzero"/></g></g></g></g><g clip-path="url(#9f36be0b13)"><g clip-path="url(#81e611cba3)"><g clip-path="url(#7751fb3b86)"><path fill="#77b255" d="M 134.964844 131.375 C 134.875 131.414062 134.8125 131.476562 134.773438 131.570312 C 134.734375 131.664062 134.730469 131.757812 134.761719 131.855469 C 134.761719 131.855469 136.3125 137.308594 137.734375 143.074219 C 138.441406 145.957031 139.113281 148.914062 139.542969 151.296875 C 139.757812 152.488281 139.910156 153.542969 139.972656 154.355469 C 140.039062 155.171875 139.992188 155.773438 139.925781 155.929688 C 139.882812 156.027344 139.878906 156.125 139.910156 156.230469 C 139.945312 156.332031 140.011719 156.40625 140.101562 156.457031 C 140.195312 156.503906 140.289062 156.511719 140.382812 156.476562 C 140.480469 156.441406 140.546875 156.375 140.589844 156.277344 C 140.792969 155.808594 140.78125 155.179688 140.710938 154.316406 C 140.640625 153.457031 140.480469 152.382812 140.261719 151.175781 C 139.828125 148.757812 139.152344 145.785156 138.441406 142.890625 C 137.015625 137.105469 135.460938 131.636719 135.460938 131.636719 C 135.429688 131.523438 135.363281 131.441406 135.265625 131.390625 C 135.164062 131.335938 135.066406 131.332031 134.964844 131.375 Z M 134.964844 131.375 " fill-opacity="1" fill-rule="nonzero"/></g></g></g><g clip-path="url(#1f07e3e9eb)"><g clip-path="url(#912bc66c13)"><g clip-path="url(#1726c2d02d)"><path fill="#77b255" d="M 145.75 123.585938 C 145.65625 123.621094 145.585938 123.6875 145.546875 123.78125 C 145.503906 123.878906 145.5 123.976562 145.535156 124.078125 C 145.535156 124.078125 146.503906 126.984375 148.765625 129.484375 C 151.03125 131.988281 154.667969 134.097656 159.78125 132.488281 C 165.085938 130.820312 167.589844 128.511719 168.78125 126.101562 C 169.972656 123.691406 169.84375 121.253906 170.046875 119.40625 C 170.058594 119.300781 170.03125 119.203125 169.96875 119.117188 C 169.90625 119.03125 169.824219 118.980469 169.722656 118.964844 C 169.621094 118.949219 169.53125 118.972656 169.453125 119.039062 C 169.371094 119.101562 169.324219 119.1875 169.3125 119.296875 C 169.101562 121.25 169.210938 123.523438 168.121094 125.726562 C 167.035156 127.925781 164.75 130.101562 159.558594 131.738281 C 154.691406 133.269531 151.421875 131.3125 149.285156 128.953125 C 147.152344 126.59375 146.21875 123.839844 146.21875 123.839844 C 146.183594 123.734375 146.121094 123.65625 146.03125 123.609375 C 145.9375 123.558594 145.84375 123.550781 145.746094 123.585938 Z M 145.75 123.585938 " fill-opacity="1" fill-rule="nonzero"/></g></g></g><g clip-path="url(#41d9bb815e)"><g clip-path="url(#40540a6a35)"><g clip-path="url(#924c7cb3c4)"><path fill="#77b255" d="M 148.546875 122.707031 L 148.085938 123.289062 C 148.101562 123.308594 148.121094 123.320312 148.140625 123.339844 C 151.03125 126.609375 153.71875 128.082031 156.140625 128.378906 C 158.574219 128.675781 160.691406 127.777344 162.410156 126.488281 C 165.851562 123.90625 167.777344 119.699219 167.777344 119.699219 L 167.222656 119.210938 C 161.734375 123.875 157.054688 124.714844 153.753906 124.421875 C 150.453125 124.128906 148.546875 122.707031 148.546875 122.707031 Z M 166.152344 121.03125 C 165.324219 122.433594 164.0625 124.292969 161.988281 125.847656 C 160.367188 127.066406 158.425781 127.875 156.203125 127.601562 C 154.40625 127.382812 152.394531 126.394531 150.199219 124.351562 C 151.121094 124.710938 152.261719 125.0625 153.714844 125.191406 C 156.867188 125.472656 161.195312 124.722656 166.152344 121.03125 Z M 166.152344 121.03125 " fill-opacity="1" fill-rule="nonzero"/></g></g></g><g clip-path="url(#cb1efe33c5)"><g clip-path="url(#9a20f6f1ad)"><g clip-path="url(#75bef244a9)"><path fill="#77b255" d="M 149.28125 197.53125 C 149.183594 197.554688 149.109375 197.613281 149.058594 197.707031 C 149.007812 197.800781 148.996094 197.898438 149.019531 198.003906 C 149.046875 198.109375 149.105469 198.1875 149.191406 198.246094 C 149.28125 198.300781 149.375 198.316406 149.472656 198.292969 L 195.707031 188.921875 C 195.804688 188.90625 195.882812 188.851562 195.9375 188.761719 C 195.996094 188.671875 196.011719 188.574219 195.988281 188.464844 C 195.96875 188.359375 195.914062 188.273438 195.828125 188.214844 C 195.738281 188.152344 195.648438 188.132812 195.546875 188.15625 L 149.3125 197.523438 C 149.300781 197.527344 149.292969 197.527344 149.28125 197.53125 Z M 149.28125 197.53125 " fill-opacity="1" fill-rule="nonzero"/></g></g></g><g clip-path="url(#6259c4fd89)"><g clip-path="url(#e84bda567f)"><g clip-path="url(#537439b1c1)"><path fill="#77b255" d="M 201.046875 134.898438 C 200.964844 134.929688 200.902344 134.984375 200.859375 135.0625 L 191.476562 150.277344 C 191.421875 150.367188 191.40625 150.464844 191.429688 150.570312 C 191.453125 150.675781 191.507812 150.761719 191.59375 150.820312 C 191.679688 150.878906 191.773438 150.898438 191.871094 150.878906 C 191.972656 150.855469 192.046875 150.800781 192.101562 150.710938 L 201.472656 135.5 C 201.574219 135.347656 201.570312 135.195312 201.460938 135.042969 C 201.351562 134.890625 201.214844 134.84375 201.046875 134.898438 Z M 201.046875 134.898438 " fill-opacity="1" fill-rule="nonzero"/></g></g></g><g clip-path="url(#1495ac2ab9)"><g clip-path="url(#88d3cdae14)"><g clip-path="url(#d57db262bf)"><path fill="#77b255" d="M 123.3125 150.902344 C 123.164062 150.949219 123.082031 151.054688 123.0625 151.222656 C 123.046875 151.386719 123.105469 151.515625 123.238281 151.605469 L 137.105469 161.457031 C 137.191406 161.53125 137.285156 161.558594 137.394531 161.542969 C 137.5 161.527344 137.585938 161.472656 137.644531 161.378906 C 137.703125 161.28125 137.714844 161.175781 137.6875 161.0625 C 137.65625 160.949219 137.59375 160.867188 137.496094 160.8125 L 123.628906 150.960938 C 123.53125 150.886719 123.425781 150.867188 123.3125 150.902344 Z M 123.3125 150.902344 " fill-opacity="1" fill-rule="nonzero"/></g></g></g><g clip-path="url(#702e46a2c1)"><g clip-path="url(#6fa1204748)"><g clip-path="url(#f80f5127d5)"><path fill="#77b255" d="M 181.972656 122.410156 C 181.804688 122.472656 181.726562 122.597656 181.734375 122.785156 C 181.734375 122.785156 181.90625 127.699219 182.667969 133.261719 C 183.046875 136.042969 183.570312 138.992188 184.300781 141.582031 C 185.027344 144.175781 185.953125 146.410156 187.195312 147.796875 C 187.265625 147.882812 187.355469 147.933594 187.460938 147.941406 C 187.566406 147.949219 187.65625 147.914062 187.734375 147.835938 C 187.808594 147.757812 187.847656 147.664062 187.84375 147.550781 C 187.839844 147.4375 187.796875 147.339844 187.714844 147.265625 C 186.632812 146.058594 185.714844 143.910156 185.003906 141.375 C 184.289062 138.84375 183.769531 135.917969 183.394531 133.160156 C 182.640625 127.648438 182.46875 122.785156 182.46875 122.785156 C 182.464844 122.648438 182.410156 122.542969 182.304688 122.460938 C 182.203125 122.382812 182.089844 122.367188 181.972656 122.410156 Z M 181.972656 122.410156 " fill-opacity="1" fill-rule="nonzero"/></g></g></g><g clip-path="url(#5324b244b5)"><path fill="#100f0d" d="M 208.859375 109.597656 C 208.734375 98.140625 217.921875 88.765625 229.382812 88.632812 C 240.851562 88.507812 250.25 97.6875 250.371094 109.140625 C 250.496094 120.589844 241.308594 129.976562 229.839844 130.097656 C 218.378906 130.230469 208.980469 121.042969 208.859375 109.597656 " fill-opacity="1" fill-rule="nonzero"/></g><g clip-path="url(#aa7520cbc2)"><path fill="#100f0d" d="M 283.988281 256.417969 L 265.195312 244.894531 L 261.414062 225.820312 C 265.734375 222.449219 268.394531 217.347656 268.617188 211.828125 C 268.679688 210.34375 268.5625 208.855469 268.269531 207.402344 L 257.480469 153.226562 C 255.503906 143.183594 245.757812 136.652344 235.710938 138.628906 C 234.003906 138.960938 232.453125 139.609375 230.929688 140.257812 C 228.238281 141.414062 226.308594 143.675781 224.917969 146.132812 L 224.871094 146.207031 C 220.773438 153.511719 212.40625 164.15625 206.277344 169.859375 L 206.074219 170.042969 L 188.648438 168.339844 C 184.863281 167.960938 181.492188 170.738281 181.144531 174.527344 C 180.796875 178.304688 183.574219 181.636719 187.351562 181.984375 L 205.707031 183.667969 C 208.085938 183.890625 210.472656 183.273438 212.445312 181.925781 L 224.871094 173.441406 L 234.917969 208.453125 C 235.765625 211.496094 234.5625 214.746094 231.917969 216.496094 L 212.574219 229.363281 C 210.25 230.984375 208.8125 233.609375 208.695312 236.441406 L 207.082031 276.117188 C 206.855469 281.484375 211.039062 286.015625 216.410156 286.230469 C 221.777344 286.445312 226.308594 282.277344 226.53125 276.914062 L 227.738281 247.304688 L 243.949219 237.015625 L 246.136719 253.980469 C 246.734375 256.535156 248.6875 258.550781 251.214844 259.246094 L 279.328125 274.117188 C 284.234375 275.46875 289.296875 272.558594 290.605469 267.644531 C 291.917969 262.710938 288.53125 259.144531 283.988281 256.417969 " fill-opacity="1" fill-rule="nonzero"/></g></svg>