<svg xmlns="http://www.w3.org/2000/svg" xmlns:xlink="http://www.w3.org/1999/xlink" width="500" zoomAndPan="magnify" viewBox="0 0 375 374.999991" height="500" preserveAspectRatio="xMidYMid meet" version="1.0"><defs><clipPath id="4d979386bf"><path d="M 152.308594 141.964844 L 302.308594 141.964844 L 302.308594 273.214844 L 152.308594 273.214844 Z M 152.308594 141.964844 " clip-rule="nonzero"/></clipPath><clipPath id="48ad4d575b"><path d="M 212.472656 101.785156 L 295.722656 101.785156 L 295.722656 180.535156 L 212.472656 180.535156 Z M 212.472656 101.785156 " clip-rule="nonzero"/></clipPath><clipPath id="4e783ba52f"><path d="M 212.660156 127.699219 L 224.910156 141.367188 L 226.605469 141.367188 L 229.730469 138.09375 L 229.730469 179.09375 L 230.253906 180.519531 L 277.558594 180.375 L 278.992188 179.378906 L 278.601562 138.519531 L 282.121094 141.9375 L 283.554688 141.652344 L 295.542969 128.269531 L 295.542969 126.273438 L 279.773438 109.191406 L 263.351562 101.785156 C 263.351562 101.785156 257.359375 108.761719 245.5 102.070312 L 229.859375 108.050781 Z M 212.660156 127.699219 " clip-rule="nonzero"/></clipPath><radialGradient gradientTransform="matrix(0, 1.174826, -0.825174, -0.0000187732, 610.04131, -65.231528)" gradientUnits="userSpaceOnUse" r="66.008513" cx="175.679777" id="10f93c44dd" cy="431.352104" fx="175.679777" fy="431.352104"><stop stop-opacity="1" stop-color="rgb(49.398804%, 85.099792%, 34.098816%)" offset="0"/><stop stop-opacity="1" stop-color="rgb(49.398804%, 85.099792%, 34.098816%)" offset="1"/></radialGradient><clipPath id="59a704d1b3"><path d="M 102 132.589844 L 132 132.589844 L 132 163 L 102 163 Z M 102 132.589844 " clip-rule="nonzero"/></clipPath><clipPath id="892de4302d"><path d="M 73 168 L 152 168 L 152 273.589844 L 73 273.589844 Z M 73 168 " clip-rule="nonzero"/></clipPath></defs><g clip-path="url(#4d979386bf)"><path fill="#000000" d="M 283.558594 201.730469 L 274.183594 201.730469 L 274.183594 188.839844 C 274.183594 186.261719 272.074219 184.152344 269.496094 184.152344 L 241.371094 184.152344 C 238.792969 184.152344 236.683594 186.261719 236.683594 188.839844 L 236.683594 201.730469 L 231.996094 201.730469 L 231.996094 188.839844 C 231.996094 186.261719 229.886719 184.152344 227.308594 184.152344 L 219.105469 184.152344 L 219.105469 174.074219 C 220.511719 173.253906 221.449219 171.730469 221.449219 170.089844 L 221.449219 163.058594 C 224.027344 163.058594 226.136719 160.949219 226.136719 158.371094 L 226.136719 146.652344 C 226.136719 144.074219 224.027344 141.964844 221.449219 141.964844 L 202.699219 141.964844 C 201.527344 141.964844 200.472656 142.433594 199.652344 143.136719 L 164.027344 143.136719 C 161.449219 143.136719 159.339844 145.246094 159.339844 147.824219 L 159.339844 185.441406 C 157.347656 185.910156 155.824219 187.785156 155.824219 190.011719 L 155.824219 201.730469 L 154.652344 201.730469 C 153.363281 201.730469 152.308594 202.785156 152.308594 204.074219 C 152.308594 205.363281 153.363281 206.417969 154.652344 206.417969 L 283.558594 206.417969 C 291.292969 206.417969 297.621094 212.746094 297.621094 220.480469 C 297.621094 228.214844 291.292969 234.542969 283.558594 234.542969 L 154.652344 234.542969 C 153.363281 234.542969 152.308594 235.597656 152.308594 236.886719 C 152.308594 238.175781 153.363281 239.230469 154.652344 239.230469 L 160.511719 239.230469 L 160.511719 270.871094 C 160.511719 272.160156 161.566406 273.214844 162.855469 273.214844 C 164.144531 273.214844 165.199219 272.160156 165.199219 270.871094 L 165.199219 261.496094 L 282.386719 261.496094 L 282.386719 270.871094 C 282.386719 272.160156 283.441406 273.214844 284.730469 273.214844 C 286.019531 273.214844 287.074219 272.160156 287.074219 270.871094 L 287.074219 238.878906 C 295.746094 237.238281 302.308594 229.621094 302.308594 220.480469 C 302.308594 210.167969 293.871094 201.730469 283.558594 201.730469 Z M 202.699219 146.652344 L 221.449219 146.652344 L 221.449219 158.371094 L 202.699219 158.371094 Z M 207.386719 170.089844 L 207.386719 163.058594 L 216.761719 163.058594 L 216.761719 170.089844 Z M 214.417969 174.777344 L 214.417969 184.152344 L 209.730469 184.152344 L 209.730469 174.777344 Z M 164.027344 147.824219 L 198.011719 147.824219 L 198.011719 157.199219 L 173.402344 157.199219 L 173.402344 185.324219 L 164.027344 185.324219 Z M 176.917969 201.730469 L 160.511719 201.730469 L 160.511719 190.011719 L 176.917969 190.011719 Z M 194.496094 188.839844 L 194.496094 201.730469 L 181.605469 201.730469 L 181.605469 190.011719 C 181.605469 187.785156 180.082031 186.027344 178.089844 185.441406 L 178.089844 161.886719 L 199.652344 161.886719 C 200.472656 162.589844 201.527344 163.058594 202.699219 163.058594 L 202.699219 170.089844 C 202.699219 171.847656 203.636719 173.371094 205.042969 174.074219 L 205.042969 184.152344 L 199.183594 184.152344 C 196.605469 184.152344 194.496094 186.261719 194.496094 188.839844 Z M 227.308594 201.730469 L 199.183594 201.730469 L 199.183594 188.839844 L 227.308594 188.839844 Z M 269.496094 201.730469 L 241.371094 201.730469 L 241.371094 188.839844 L 269.496094 188.839844 Z M 282.386719 256.808594 L 165.199219 256.808594 L 165.199219 239.230469 L 282.386719 239.230469 Z M 282.386719 256.808594 " fill-opacity="1" fill-rule="nonzero"/></g><path fill="#000000" d="M 292.933594 220.480469 C 292.933594 215.324219 288.714844 211.105469 283.558594 211.105469 C 278.402344 211.105469 274.183594 215.324219 274.183594 220.480469 C 274.183594 225.636719 278.402344 229.855469 283.558594 229.855469 C 288.714844 229.855469 292.933594 225.636719 292.933594 220.480469 Z M 278.871094 220.480469 C 278.871094 217.902344 280.980469 215.792969 283.558594 215.792969 C 286.136719 215.792969 288.246094 217.902344 288.246094 220.480469 C 288.246094 223.058594 286.136719 225.167969 283.558594 225.167969 C 280.980469 225.167969 278.871094 223.058594 278.871094 220.480469 Z M 278.871094 220.480469 " fill-opacity="1" fill-rule="nonzero"/><path fill="#000000" d="M 269.496094 220.480469 C 269.496094 215.910156 265.863281 212.277344 261.292969 212.277344 C 256.722656 212.277344 253.089844 215.910156 253.089844 220.480469 C 253.089844 225.050781 256.722656 228.683594 261.292969 228.683594 C 265.863281 228.683594 269.496094 225.050781 269.496094 220.480469 Z M 257.777344 220.480469 C 257.777344 218.488281 259.300781 216.964844 261.292969 216.964844 C 263.285156 216.964844 264.808594 218.488281 264.808594 220.480469 C 264.808594 222.472656 263.285156 223.996094 261.292969 223.996094 C 259.300781 223.996094 257.777344 222.472656 257.777344 220.480469 Z M 257.777344 220.480469 " fill-opacity="1" fill-rule="nonzero"/><path fill="#000000" d="M 248.402344 220.480469 C 248.402344 215.910156 244.769531 212.277344 240.199219 212.277344 C 235.628906 212.277344 231.996094 215.910156 231.996094 220.480469 C 231.996094 225.050781 235.628906 228.683594 240.199219 228.683594 C 244.769531 228.683594 248.402344 225.050781 248.402344 220.480469 Z M 236.683594 220.480469 C 236.683594 218.488281 238.207031 216.964844 240.199219 216.964844 C 242.191406 216.964844 243.714844 218.488281 243.714844 220.480469 C 243.714844 222.472656 242.191406 223.996094 240.199219 223.996094 C 238.207031 223.996094 236.683594 222.472656 236.683594 220.480469 Z M 236.683594 220.480469 " fill-opacity="1" fill-rule="nonzero"/><path fill="#000000" d="M 227.308594 220.480469 C 227.308594 215.910156 223.675781 212.277344 219.105469 212.277344 C 214.535156 212.277344 210.902344 215.910156 210.902344 220.480469 C 210.902344 225.050781 214.535156 228.683594 219.105469 228.683594 C 223.675781 228.683594 227.308594 225.050781 227.308594 220.480469 Z M 215.589844 220.480469 C 215.589844 218.488281 217.113281 216.964844 219.105469 216.964844 C 221.097656 216.964844 222.621094 218.488281 222.621094 220.480469 C 222.621094 222.472656 221.097656 223.996094 219.105469 223.996094 C 217.113281 223.996094 215.589844 222.472656 215.589844 220.480469 Z M 215.589844 220.480469 " fill-opacity="1" fill-rule="nonzero"/><path fill="#000000" d="M 206.214844 220.480469 C 206.214844 215.910156 202.582031 212.277344 198.011719 212.277344 C 193.441406 212.277344 189.808594 215.910156 189.808594 220.480469 C 189.808594 225.050781 193.441406 228.683594 198.011719 228.683594 C 202.582031 228.683594 206.214844 225.050781 206.214844 220.480469 Z M 194.496094 220.480469 C 194.496094 218.488281 196.019531 216.964844 198.011719 216.964844 C 200.003906 216.964844 201.527344 218.488281 201.527344 220.480469 C 201.527344 222.472656 200.003906 223.996094 198.011719 223.996094 C 196.019531 223.996094 194.496094 222.472656 194.496094 220.480469 Z M 194.496094 220.480469 " fill-opacity="1" fill-rule="nonzero"/><path fill="#000000" d="M 185.121094 220.480469 C 185.121094 215.910156 181.488281 212.277344 176.917969 212.277344 C 172.347656 212.277344 168.714844 215.910156 168.714844 220.480469 C 168.714844 225.050781 172.347656 228.683594 176.917969 228.683594 C 181.488281 228.683594 185.121094 225.050781 185.121094 220.480469 Z M 173.402344 220.480469 C 173.402344 218.488281 174.925781 216.964844 176.917969 216.964844 C 178.910156 216.964844 180.433594 218.488281 180.433594 220.480469 C 180.433594 222.472656 178.910156 223.996094 176.917969 223.996094 C 174.925781 223.996094 173.402344 222.472656 173.402344 220.480469 Z M 173.402344 220.480469 " fill-opacity="1" fill-rule="nonzero"/><g clip-path="url(#48ad4d575b)"><g clip-path="url(#4e783ba52f)"><path fill="url(#10f93c44dd)" d="M 295.542969 101.785156 L 212.660156 101.785156 L 212.660156 180.519531 L 295.542969 180.519531 Z M 295.542969 101.785156 " fill-rule="nonzero"/></g></g><path fill="#77b255" d="M 230.1875 109.226562 C 230.09375 109.246094 230.015625 109.296875 229.960938 109.378906 C 229.902344 109.460938 229.878906 109.554688 229.890625 109.65625 C 229.890625 109.65625 230.3125 115.308594 230.539062 121.242188 C 230.652344 124.210938 230.714844 127.238281 230.652344 129.664062 C 230.625 130.875 230.558594 131.933594 230.460938 132.746094 C 230.359375 133.558594 230.191406 134.136719 230.09375 134.277344 C 230.03125 134.363281 230.007812 134.457031 230.019531 134.566406 C 230.035156 134.675781 230.082031 134.761719 230.160156 134.828125 C 230.242188 134.894531 230.332031 134.921875 230.433594 134.90625 C 230.535156 134.890625 230.613281 134.839844 230.675781 134.753906 C 230.96875 134.332031 231.082031 133.710938 231.1875 132.855469 C 231.296875 132 231.351562 130.914062 231.382812 129.6875 C 231.445312 127.230469 231.382812 124.183594 231.269531 121.207031 C 231.039062 115.253906 230.621094 109.582031 230.621094 109.582031 C 230.609375 109.464844 230.5625 109.371094 230.476562 109.300781 C 230.390625 109.230469 230.292969 109.203125 230.1875 109.226562 Z M 230.1875 109.226562 " fill-opacity="1" fill-rule="nonzero"/><path fill="#77b255" d="M 242.320312 103.769531 C 242.21875 103.785156 242.140625 103.835938 242.082031 103.921875 C 242.019531 104.007812 241.996094 104.105469 242.011719 104.210938 C 242.011719 104.210938 242.375 107.25 244.085938 110.15625 C 245.800781 113.066406 248.9375 115.867188 254.269531 115.320312 C 259.800781 114.757812 262.722656 113 264.371094 110.878906 C 266.023438 108.761719 266.390625 106.34375 266.960938 104.578125 C 266.992188 104.476562 266.988281 104.375 266.941406 104.277344 C 266.898438 104.179688 266.828125 104.113281 266.730469 104.078125 C 266.636719 104.042969 266.542969 104.050781 266.453125 104.097656 C 266.359375 104.144531 266.300781 104.21875 266.265625 104.320312 C 265.664062 106.191406 265.3125 108.441406 263.800781 110.378906 C 262.292969 112.3125 259.617188 113.984375 254.199219 114.539062 C 249.125 115.058594 246.316406 112.484375 244.703125 109.742188 C 243.085938 107 242.730469 104.113281 242.730469 104.113281 C 242.71875 104.003906 242.671875 103.917969 242.589844 103.847656 C 242.511719 103.78125 242.417969 103.757812 242.320312 103.769531 Z M 242.320312 103.769531 " fill-opacity="1" fill-rule="nonzero"/><path fill="#77b255" d="M 245.238281 103.476562 L 244.667969 103.953125 C 244.679688 103.976562 244.699219 103.988281 244.710938 104.011719 C 246.882812 107.796875 249.222656 109.78125 251.53125 110.558594 C 253.855469 111.339844 256.109375 110.890625 258.054688 109.972656 C 261.945312 108.136719 264.679688 104.40625 264.679688 104.40625 L 264.234375 103.816406 C 257.917969 107.277344 253.164062 107.15625 249.992188 106.203125 C 246.816406 105.25 245.238281 103.476562 245.238281 103.476562 Z M 262.820312 105.382812 C 261.726562 106.589844 260.113281 108.15625 257.769531 109.261719 C 255.933594 110.128906 253.871094 110.527344 251.75 109.8125 C 250.035156 109.238281 248.261719 107.859375 246.527344 105.421875 C 247.351562 105.957031 248.402344 106.53125 249.796875 106.949219 C 252.828125 107.859375 257.21875 108 262.820312 105.382812 Z M 262.820312 105.382812 " fill-opacity="1" fill-rule="nonzero"/><path fill="#77b255" d="M 230.871094 176.910156 C 230.769531 176.914062 230.683594 176.957031 230.617188 177.035156 C 230.546875 177.117188 230.515625 177.210938 230.519531 177.320312 C 230.523438 177.429688 230.566406 177.519531 230.640625 177.589844 C 230.714844 177.664062 230.800781 177.699219 230.902344 177.691406 L 278.078125 177.839844 C 278.179688 177.839844 278.265625 177.804688 278.339844 177.726562 C 278.410156 177.648438 278.445312 177.558594 278.445312 177.449219 C 278.445312 177.339844 278.410156 177.246094 278.339844 177.167969 C 278.265625 177.09375 278.179688 177.054688 278.078125 177.054688 L 230.902344 176.910156 C 230.890625 176.910156 230.878906 176.910156 230.871094 176.910156 Z M 230.871094 176.910156 " fill-opacity="1" fill-rule="nonzero"/><path fill="#77b255" d="M 294.203125 126.003906 C 294.117188 126.015625 294.042969 126.058594 293.984375 126.125 L 281.726562 139.132812 C 281.65625 139.210938 281.621094 139.304688 281.621094 139.414062 C 281.625 139.519531 281.660156 139.613281 281.734375 139.691406 C 281.804688 139.765625 281.890625 139.804688 281.992188 139.800781 C 282.09375 139.800781 282.179688 139.761719 282.25 139.683594 L 294.5 126.675781 C 294.625 126.546875 294.652344 126.394531 294.578125 126.222656 C 294.503906 126.054688 294.375 125.980469 294.203125 126.003906 Z M 294.203125 126.003906 " fill-opacity="1" fill-rule="nonzero"/><path fill="#77b255" d="M 214.839844 126.003906 C 214.683594 126.019531 214.578125 126.105469 214.527344 126.265625 C 214.476562 126.421875 214.507812 126.558594 214.621094 126.675781 L 226.21875 139.121094 C 226.285156 139.210938 226.375 139.261719 226.484375 139.265625 C 226.589844 139.273438 226.683594 139.234375 226.761719 139.152344 C 226.835938 139.070312 226.871094 138.96875 226.867188 138.855469 C 226.863281 138.738281 226.816406 138.644531 226.730469 138.570312 L 215.132812 126.125 C 215.054688 126.035156 214.957031 125.992188 214.839844 126.003906 Z M 214.839844 126.003906 " fill-opacity="1" fill-rule="nonzero"/><path fill="#77b255" d="M 278.035156 109.921875 C 277.863281 109.949219 277.757812 110.054688 277.726562 110.242188 C 277.726562 110.242188 276.90625 115.089844 276.53125 120.691406 C 276.34375 123.492188 276.257812 126.488281 276.449219 129.171875 C 276.640625 131.855469 277.09375 134.234375 278.035156 135.839844 C 278.085938 135.941406 278.160156 136.007812 278.265625 136.035156 C 278.367188 136.066406 278.464844 136.050781 278.554688 135.988281 C 278.644531 135.929688 278.699219 135.84375 278.71875 135.730469 C 278.738281 135.617188 278.714844 135.515625 278.652344 135.425781 C 277.832031 134.023438 277.367188 131.734375 277.179688 129.109375 C 276.992188 126.484375 277.074219 123.515625 277.261719 120.742188 C 277.632812 115.1875 278.445312 110.386719 278.445312 110.386719 C 278.472656 110.253906 278.441406 110.140625 278.351562 110.042969 C 278.265625 109.945312 278.160156 109.902344 278.035156 109.921875 Z M 278.035156 109.921875 " fill-opacity="1" fill-rule="nonzero"/><g clip-path="url(#59a704d1b3)"><path fill="#000000" d="M 131.976562 147.660156 C 132.066406 139.5 125.558594 132.824219 117.445312 132.730469 C 109.324219 132.640625 102.671875 139.175781 102.582031 147.335938 C 102.496094 155.484375 109 162.171875 117.121094 162.257812 C 125.234375 162.351562 131.890625 155.808594 131.976562 147.660156 " fill-opacity="1" fill-rule="nonzero"/></g><g clip-path="url(#892de4302d)"><path fill="#000000" d="M 78.78125 252.214844 L 92.089844 244.007812 L 94.761719 230.425781 C 91.703125 228.023438 89.824219 224.386719 89.664062 220.457031 C 89.621094 219.402344 89.703125 218.34375 89.910156 217.308594 L 97.546875 178.726562 C 98.949219 171.574219 105.847656 166.925781 112.960938 168.332031 C 114.171875 168.570312 115.273438 169.03125 116.351562 169.492188 C 118.253906 170.316406 119.621094 171.925781 120.605469 173.675781 L 120.640625 173.730469 C 123.539062 178.929688 129.464844 186.511719 133.804688 190.570312 L 133.945312 190.703125 L 146.285156 189.488281 C 148.96875 189.21875 151.351562 191.199219 151.597656 193.898438 C 151.84375 196.585938 149.878906 198.960938 147.203125 199.207031 L 134.210938 200.40625 C 132.523438 200.566406 130.832031 200.125 129.4375 199.164062 L 120.640625 193.121094 L 113.527344 218.054688 C 112.925781 220.222656 113.777344 222.535156 115.648438 223.785156 L 129.34375 232.945312 C 130.992188 234.101562 132.011719 235.96875 132.09375 237.988281 L 133.234375 266.242188 C 133.394531 270.0625 130.433594 273.289062 126.632812 273.441406 C 122.828125 273.597656 119.621094 270.628906 119.464844 266.808594 L 118.609375 245.722656 L 107.128906 238.394531 L 105.582031 250.476562 C 105.160156 252.296875 103.777344 253.730469 101.988281 254.226562 L 82.082031 264.816406 C 78.605469 265.78125 75.023438 263.707031 74.097656 260.207031 C 73.167969 256.695312 75.5625 254.152344 78.78125 252.214844 " fill-opacity="1" fill-rule="nonzero"/></g></svg>