<svg xmlns="http://www.w3.org/2000/svg" xmlns:xlink="http://www.w3.org/1999/xlink" width="500" zoomAndPan="magnify" viewBox="0 0 375 374.999991" height="500" preserveAspectRatio="xMidYMid meet" version="1.0"><defs><clipPath id="119102c3f0"><path d="M 162 258 L 259 258 L 259 281.578125 L 162 281.578125 Z M 162 258 " clip-rule="nonzero"/></clipPath><clipPath id="6fe01e39d4"><path d="M 72.304688 93.328125 L 302.554688 93.328125 L 302.554688 280 L 72.304688 280 Z M 72.304688 93.328125 " clip-rule="nonzero"/></clipPath><clipPath id="869b386185"><path d="M 125.253906 194 L 166 194 L 166 249 L 125.253906 249 Z M 125.253906 194 " clip-rule="nonzero"/></clipPath></defs><path fill="#000000" d="M 203.296875 250.121094 C 204.769531 249.59375 205.539062 247.96875 205.011719 246.496094 C 204.480469 245.023438 202.859375 244.253906 201.386719 244.785156 C 196.515625 246.527344 191.394531 247.410156 186.167969 247.410156 C 170.125 247.410156 155.144531 238.78125 147.078125 224.886719 C 146.292969 223.535156 144.558594 223.074219 143.207031 223.859375 C 143.117188 223.910156 138.546875 226.570312 138.546875 226.570312 L 139.070312 216.78125 L 152.472656 223.589844 C 153.867188 224.296875 155.574219 223.738281 156.28125 222.34375 C 156.992188 220.949219 156.433594 219.242188 155.039062 218.535156 L 137.757812 209.757812 C 136.90625 209.324219 135.886719 209.351562 135.058594 209.832031 C 134.230469 210.308594 133.695312 211.175781 133.644531 212.132812 L 132.605469 231.488281 C 132.550781 232.527344 133.066406 233.511719 133.953125 234.054688 C 134.40625 234.335938 134.921875 234.476562 135.433594 234.476562 C 135.925781 234.476562 136.414062 234.347656 136.851562 234.09375 L 143.679688 230.15625 C 147.960938 236.660156 153.703125 242.132812 160.425781 246.089844 C 168.199219 250.664062 177.101562 253.082031 186.167969 253.082031 C 192.046875 253.078125 197.8125 252.082031 203.296875 250.121094 Z M 203.296875 250.121094 " fill-opacity="1" fill-rule="nonzero"/><path fill="#000000" d="M 218.960938 163.390625 C 217.777344 162.390625 216.011719 162.53125 214.996094 163.695312 C 213.957031 164.886719 214.144531 166.738281 215.347656 167.757812 C 225.507812 176.367188 231.332031 188.933594 231.332031 202.238281 C 231.332031 210.175781 229.246094 217.980469 225.300781 224.8125 L 225.296875 224.8125 C 224.9375 225.488281 224.832031 226.277344 225.046875 227.007812 C 225.253906 227.703125 225.710938 228.324219 226.371094 228.703125 L 231.003906 231.378906 L 222.265625 235.820312 L 221.457031 220.808594 C 221.375 219.246094 220.035156 218.046875 218.476562 218.132812 C 216.914062 218.214844 215.714844 219.550781 215.796875 221.113281 L 216.839844 240.46875 C 216.890625 241.425781 217.421875 242.292969 218.25 242.769531 C 218.6875 243.023438 219.179688 243.148438 219.667969 243.148438 C 220.109375 243.148438 220.546875 243.046875 220.953125 242.84375 L 238.230469 234.066406 C 239.160156 233.59375 239.753906 232.65625 239.78125 231.613281 C 239.808594 230.574219 239.265625 229.605469 238.367188 229.085938 L 231.554688 225.152344 C 235.125 218.082031 237 210.21875 237 202.238281 C 237 187.242188 230.425781 173.082031 218.960938 163.390625 Z M 218.960938 163.390625 " fill-opacity="1" fill-rule="nonzero"/><path fill="#000000" d="M 183.792969 166.359375 C 184.335938 167.191406 185.242188 167.644531 186.171875 167.644531 C 186.703125 167.644531 187.238281 167.496094 187.714844 167.1875 L 203.953125 156.609375 C 204.757812 156.085938 205.242188 155.191406 205.242188 154.234375 C 205.242188 153.277344 204.757812 152.382812 203.953125 151.859375 L 187.714844 141.28125 C 186.84375 140.714844 185.730469 140.667969 184.816406 141.164062 C 183.902344 141.660156 183.335938 142.617188 183.335938 143.65625 L 183.335938 151.480469 C 178.4375 151.746094 173.644531 152.710938 169.042969 154.359375 C 163.738281 156.257812 158.8125 159.011719 154.402344 162.546875 C 150.03125 166.050781 146.289062 170.21875 143.28125 174.9375 C 140.214844 179.742188 138 184.980469 136.695312 190.511719 C 136.335938 192.035156 137.277344 193.5625 138.800781 193.921875 C 139.019531 193.972656 139.238281 194 139.453125 194 C 140.738281 194 141.902344 193.121094 142.210938 191.816406 C 147.042969 171.355469 165.117188 157.070312 186.167969 157.070312 C 187.730469 157.070312 189 155.800781 189 154.234375 L 189 148.882812 L 197.214844 154.234375 L 184.621094 162.4375 C 183.308594 163.292969 182.9375 165.046875 183.792969 166.359375 Z M 183.792969 166.359375 " fill-opacity="1" fill-rule="nonzero"/><path fill="#000000" d="M 263.410156 206.71875 L 263.410156 173.773438 L 269.570312 185.738281 C 270.050781 186.675781 271.011719 187.261719 272.070312 187.261719 C 272.511719 187.261719 272.957031 187.152344 273.355469 186.949219 C 274.019531 186.605469 274.515625 186.023438 274.742188 185.304688 C 274.972656 184.589844 274.910156 183.832031 274.566406 183.164062 L 263.097656 160.894531 C 262.386719 159.515625 260.6875 158.972656 259.3125 159.679688 C 258.425781 160.136719 257.84375 161.042969 257.792969 162.042969 C 257.789062 162.085938 257.789062 162.128906 257.789062 162.167969 L 257.789062 206.71875 C 257.789062 208.269531 259.046875 209.527344 260.597656 209.527344 C 262.148438 209.53125 263.410156 208.269531 263.410156 206.71875 Z M 263.410156 206.71875 " fill-opacity="1" fill-rule="nonzero"/><g clip-path="url(#119102c3f0)"><path fill="#000000" d="M 255.328125 275.929688 L 168.0625 275.886719 L 168.0625 261.6875 C 168.0625 260.136719 166.800781 258.875 165.25 258.875 C 163.699219 258.875 162.441406 260.136719 162.441406 261.6875 L 162.441406 278.699219 C 162.441406 280.246094 163.699219 281.507812 165.25 281.507812 L 255.328125 281.550781 C 256.878906 281.550781 258.140625 280.289062 258.140625 278.738281 C 258.140625 277.1875 256.878906 275.929688 255.328125 275.929688 Z M 255.328125 275.929688 " fill-opacity="1" fill-rule="nonzero"/></g><g clip-path="url(#6fe01e39d4)"><path fill="#000000" d="M 302.300781 153.265625 C 302.285156 153.230469 302.265625 153.195312 302.246094 153.15625 L 289.589844 128.578125 C 287.765625 125.035156 285.105469 121.917969 281.894531 119.5625 C 278.679688 117.207031 274.910156 115.601562 270.992188 114.925781 L 245.179688 108.699219 C 245.507812 107.917969 245.464844 107.023438 245.058594 106.273438 L 238.851562 94.835938 C 238.390625 93.984375 237.5 93.421875 236.53125 93.371094 L 236.507812 93.371094 C 236.476562 93.367188 236.441406 93.367188 236.402344 93.367188 L 189.472656 93.367188 C 189.457031 93.367188 189.445312 93.367188 189.433594 93.367188 L 189.394531 93.367188 C 189.371094 93.367188 189.34375 93.371094 189.316406 93.371094 C 188.351562 93.421875 187.460938 93.984375 187 94.835938 L 180.792969 106.273438 C 180.386719 107.023438 180.34375 107.917969 180.667969 108.699219 L 154.867188 114.882812 C 150.941406 115.5625 147.167969 117.164062 143.957031 119.523438 C 140.746094 121.878906 138.082031 124.996094 136.257812 128.539062 L 95.792969 207.109375 C 95.765625 207.164062 95.742188 207.21875 95.714844 207.277344 L 80.261719 242.832031 L 72.714844 257.484375 C 72.371094 258.148438 72.308594 258.910156 72.539062 259.625 C 72.765625 260.339844 73.261719 260.921875 73.929688 261.269531 L 103.492188 276.5 C 104.148438 276.835938 104.9375 276.902344 105.636719 276.675781 C 106.351562 276.449219 106.933594 275.953125 107.277344 275.285156 L 114.820312 260.644531 L 126.71875 240.839844 C 127.496094 239.550781 127.121094 237.890625 125.871094 237.054688 C 125.226562 236.625 124.453125 236.480469 123.695312 236.652344 C 122.9375 236.820312 122.300781 237.28125 121.902344 237.945312 L 111.3125 255.566406 L 86.425781 242.746094 L 100.832031 209.605469 L 141.253906 131.113281 C 144.148438 125.492188 149.59375 121.496094 155.832031 120.421875 L 183.257812 113.953125 L 192.757812 133.203125 C 193.144531 133.980469 193.847656 134.527344 194.699219 134.707031 C 194.890625 134.75 195.085938 134.769531 195.28125 134.769531 C 195.9375 134.769531 196.574219 134.539062 197.078125 134.117188 L 209.105469 124.097656 C 210.230469 123.160156 210.449219 121.542969 209.617188 120.339844 L 204.210938 112.53125 L 221.640625 112.53125 L 216.234375 120.339844 C 215.398438 121.542969 215.617188 123.160156 216.746094 124.097656 L 228.769531 134.117188 C 229.273438 134.539062 229.914062 134.769531 230.570312 134.769531 C 230.765625 134.769531 230.960938 134.75 231.152344 134.707031 C 232 134.527344 232.707031 133.980469 233.089844 133.203125 L 242.59375 113.949219 L 270.027344 120.464844 C 276.253906 121.539062 281.699219 125.535156 284.59375 131.152344 L 296.589844 154.441406 L 268.324219 209.324219 C 268.296875 209.378906 268.269531 209.433594 268.246094 209.492188 L 252.792969 245.046875 L 245.246094 259.695312 C 244.902344 260.363281 244.839844 261.125 245.070312 261.839844 C 245.296875 262.554688 245.792969 263.136719 246.457031 263.480469 L 276.023438 278.710938 C 276.421875 278.914062 276.867188 279.023438 277.3125 279.023438 C 277.601562 279.023438 277.890625 278.980469 278.167969 278.890625 C 278.882812 278.660156 279.464844 278.167969 279.808594 277.5 L 287.351562 262.859375 L 301.761719 238.875 C 302.023438 238.445312 302.160156 237.949219 302.164062 237.441406 L 302.5625 154.457031 C 302.5625 154.042969 302.472656 153.644531 302.300781 153.265625 Z M 108.582031 260.480469 L 103.570312 270.214844 L 79 257.558594 L 84.011719 247.824219 Z M 196.222656 127.515625 L 186.425781 107.675781 L 189.761719 101.53125 L 203.53125 121.425781 Z M 200.316406 106.910156 L 194.832031 98.988281 L 231.015625 98.988281 L 225.53125 106.910156 Z M 229.628906 127.515625 L 222.316406 121.425781 L 236.089844 101.53125 L 239.421875 107.675781 Z M 276.097656 272.425781 L 251.53125 259.769531 L 256.542969 250.039062 L 281.109375 262.695312 Z M 296.546875 236.644531 L 283.84375 257.78125 L 258.957031 244.960938 L 273.363281 211.820312 L 296.882812 166.148438 Z M 296.546875 236.644531 " fill-opacity="1" fill-rule="nonzero"/></g><path fill="#77b255" d="M 230.414062 237.921875 C 229.191406 237.921875 228.003906 237.285156 227.359375 236.148438 L 212.464844 211.613281 C 211.5 209.929688 211.878906 207.820312 213.5625 206.851562 L 231 196.300781 C 231.546875 195.988281 232.742188 195.71875 233.332031 195.71875 C 234.558594 195.71875 235.695312 196.414062 236.34375 197.550781 L 247.273438 215.5625 L 247.847656 223.414062 C 248.8125 225.097656 244.480469 227.578125 242.789062 228.542969 L 232.152344 237.457031 C 231.605469 237.773438 231.003906 237.921875 230.414062 237.921875 Z M 230.414062 237.921875 " fill-opacity="1" fill-rule="nonzero"/><path fill="#7ed957" d="M 205.792969 248.472656 C 203.847656 248.472656 202.277344 246.898438 202.277344 244.953125 L 202.277344 223.851562 C 202.277344 221.90625 203.847656 220.335938 205.792969 220.335938 L 240.960938 220.335938 C 247.46875 220.335938 246.414062 214.074219 246.414062 214.074219 C 246.414062 214.074219 247.5625 216.050781 247.730469 216.363281 C 248.882812 218.519531 249.644531 221.820312 247.851562 225.171875 L 236.988281 246.703125 C 236.476562 247.71875 235.261719 248.472656 233.929688 248.472656 Z M 205.792969 248.472656 " fill-opacity="1" fill-rule="nonzero"/><path fill="#7ed957" d="M 202.277344 259.023438 C 201.359375 259.023438 200.460938 258.664062 199.789062 257.992188 L 178.6875 236.890625 C 177.3125 235.515625 177.3125 233.292969 178.6875 231.917969 L 199.789062 210.816406 C 200.460938 210.144531 201.359375 209.785156 202.277344 209.785156 C 202.730469 209.785156 203.1875 209.871094 203.621094 210.050781 C 204.9375 210.59375 205.792969 211.882812 205.792969 213.300781 L 205.792969 255.503906 C 205.792969 256.925781 204.9375 258.214844 203.621094 258.753906 C 203.1875 258.9375 202.730469 259.023438 202.277344 259.023438 Z M 202.277344 259.023438 " fill-opacity="1" fill-rule="nonzero"/><path fill="#77b255" d="M 197.328125 147.53125 C 197.882812 148.621094 197.855469 149.964844 197.136719 151.0625 L 182.039062 175.46875 C 180.972656 177.097656 178.921875 177.71875 177.296875 176.652344 L 159.980469 165.910156 C 159.453125 165.5625 158.664062 164.621094 158.398438 164.097656 C 157.84375 163.007812 157.945312 161.675781 158.660156 160.578125 L 169.746094 142.664062 L 176.480469 138.589844 C 177.542969 136.960938 181.71875 139.695312 183.347656 140.765625 L 196.117188 146.195312 C 196.652344 146.542969 197.058594 147.011719 197.328125 147.53125 Z M 197.328125 147.53125 " fill-opacity="1" fill-rule="nonzero"/><path fill="#7ed957" d="M 217.90625 164.679688 C 218.789062 166.414062 218.105469 168.527344 216.367188 169.414062 L 197.5625 178.996094 C 195.832031 179.875 193.714844 179.1875 192.835938 177.457031 L 176.863281 146.121094 C 173.910156 140.320312 168.808594 144.105469 168.808594 144.105469 C 168.808594 144.105469 170.046875 142.1875 170.25 141.890625 C 171.652344 139.886719 174.242188 137.710938 178.042969 137.785156 L 202.167969 137.6875 C 203.304688 137.6875 204.527344 138.421875 205.136719 139.613281 Z M 217.90625 164.679688 " fill-opacity="1" fill-rule="nonzero"/><path fill="#7ed957" d="M 228.902344 163.027344 C 229.316406 163.839844 229.40625 164.804688 229.113281 165.707031 L 219.894531 194.09375 C 219.296875 195.9375 217.3125 196.949219 215.464844 196.351562 L 187.082031 187.125 C 186.175781 186.832031 185.449219 186.195312 185.03125 185.382812 C 184.824219 184.980469 184.695312 184.53125 184.65625 184.058594 C 184.542969 182.636719 185.304688 181.292969 186.570312 180.652344 L 224.171875 161.492188 C 225.4375 160.84375 226.96875 161.019531 228.050781 161.949219 C 228.414062 162.25 228.699219 162.621094 228.902344 163.027344 Z M 228.902344 163.027344 " fill-opacity="1" fill-rule="nonzero"/><path fill="#77b255" d="M 136.773438 222.242188 C 137.410156 221.199219 138.566406 220.519531 139.875 220.558594 L 168.578125 220.574219 C 170.519531 220.636719 172.125 222.050781 172.074219 223.992188 L 172.027344 244.375 C 172.007812 245.007812 171.617188 246.175781 171.3125 246.675781 C 170.675781 247.71875 169.488281 248.335938 168.179688 248.296875 L 147.113281 248.269531 L 140.101562 244.683594 C 138.164062 244.625 138.300781 239.636719 138.347656 237.699219 L 136.261719 223.96875 C 136.277344 223.339844 136.464844 222.746094 136.773438 222.242188 Z M 136.773438 222.242188 " fill-opacity="1" fill-rule="nonzero"/><g clip-path="url(#869b386185)"><path fill="#7ed957" d="M 140.558594 195.722656 C 141.566406 194.0625 143.730469 193.535156 145.390625 194.546875 L 163.417969 205.515625 C 165.082031 206.523438 165.605469 208.683594 164.59375 210.347656 L 146.316406 240.394531 C 142.941406 245.949219 148.839844 248.304688 148.839844 248.304688 C 148.839844 248.304688 146.554688 248.257812 146.199219 248.234375 C 143.75 248.101562 140.539062 247.035156 138.605469 243.765625 L 125.851562 223.296875 C 125.25 222.332031 125.242188 220.898438 125.933594 219.757812 Z M 140.558594 195.722656 " fill-opacity="1" fill-rule="nonzero"/></g><path fill="#7ed957" d="M 133.367188 187.238281 C 133.847656 186.449219 134.617188 185.875 135.542969 185.640625 L 164.539062 178.585938 C 166.425781 178.121094 168.328125 179.277344 168.789062 181.167969 L 175.847656 210.160156 C 176.070312 211.089844 175.90625 212.039062 175.429688 212.824219 C 175.199219 213.207031 174.886719 213.554688 174.503906 213.835938 C 173.355469 214.671875 171.816406 214.738281 170.597656 214 L 134.550781 192.070312 C 133.332031 191.328125 132.683594 189.929688 132.898438 188.523438 C 132.96875 188.054688 133.132812 187.625 133.367188 187.238281 Z M 133.367188 187.238281 " fill-opacity="1" fill-rule="nonzero"/></svg>