<svg xmlns="http://www.w3.org/2000/svg" xmlns:xlink="http://www.w3.org/1999/xlink" width="500" zoomAndPan="magnify" viewBox="0 0 375 374.999991" height="500" preserveAspectRatio="xMidYMid meet" version="1.0"><defs><clipPath id="49fe940c81"><path d="M 276 232 L 320.828125 232 L 320.828125 280 L 276 280 Z M 276 232 " clip-rule="nonzero"/></clipPath><clipPath id="db92e27e79"><path d="M 173.078125 232 L 218 232 L 218 280 L 173.078125 280 Z M 173.078125 232 " clip-rule="nonzero"/></clipPath><clipPath id="9f73635491"><path d="M 116 145 L 198 145 L 198 229 L 116 229 Z M 116 145 " clip-rule="nonzero"/></clipPath><clipPath id="76981b69b7"><path d="M 111.136719 155.324219 L 192.675781 138.539062 L 208.554688 215.671875 L 127.015625 232.457031 Z M 111.136719 155.324219 " clip-rule="nonzero"/></clipPath><clipPath id="2fb0004e0a"><path d="M 111.136719 155.324219 L 192.675781 138.539062 L 208.554688 215.671875 L 127.015625 232.457031 Z M 111.136719 155.324219 " clip-rule="nonzero"/></clipPath><clipPath id="47c874e9f0"><path d="M 116.542969 180.667969 L 131.296875 191.585938 L 132.957031 191.242188 L 135.359375 187.40625 L 143.628906 227.566406 L 144.425781 228.855469 L 190.730469 219.179688 L 191.933594 217.914062 L 183.3125 177.96875 L 187.445312 180.605469 L 188.792969 180.039062 L 197.839844 164.511719 L 197.4375 162.5625 L 178.546875 149.007812 L 160.972656 145.066406 C 160.972656 145.066406 156.507812 153.105469 143.542969 148.945312 L 129.429688 157.953125 Z M 116.542969 180.667969 " clip-rule="nonzero"/></clipPath><radialGradient gradientTransform="matrix(0.236873, 1.150698, -0.808232, 0.166356, 466.864403, -88.422698)" gradientUnits="userSpaceOnUse" r="66.008514" cx="175.679779" id="997967d77e" cy="431.352109" fx="175.679779" fy="431.352109"><stop stop-opacity="1" stop-color="rgb(49.398804%, 85.099792%, 34.098816%)" offset="0"/><stop stop-opacity="1" stop-color="rgb(49.398804%, 85.099792%, 34.098816%)" offset="1"/></radialGradient><clipPath id="81ae966fc1"><path d="M 129 159 L 136 159 L 136 185 L 129 185 Z M 129 159 " clip-rule="nonzero"/></clipPath><clipPath id="9abf95dc6f"><path d="M 111.136719 155.324219 L 192.675781 138.539062 L 208.554688 215.671875 L 127.015625 232.457031 Z M 111.136719 155.324219 " clip-rule="nonzero"/></clipPath><clipPath id="893eeb78af"><path d="M 111.136719 155.324219 L 192.675781 138.539062 L 208.554688 215.671875 L 127.015625 232.457031 Z M 111.136719 155.324219 " clip-rule="nonzero"/></clipPath><clipPath id="fe0cdb16d8"><path d="M 140 146 L 166 146 L 166 161 L 140 161 Z M 140 146 " clip-rule="nonzero"/></clipPath><clipPath id="1c8335bb95"><path d="M 111.136719 155.324219 L 192.675781 138.539062 L 208.554688 215.671875 L 127.015625 232.457031 Z M 111.136719 155.324219 " clip-rule="nonzero"/></clipPath><clipPath id="715c49b833"><path d="M 111.136719 155.324219 L 192.675781 138.539062 L 208.554688 215.671875 L 127.015625 232.457031 Z M 111.136719 155.324219 " clip-rule="nonzero"/></clipPath><clipPath id="3442726a61"><path d="M 143 146 L 163 146 L 163 157 L 143 157 Z M 143 146 " clip-rule="nonzero"/></clipPath><clipPath id="6b60747fd7"><path d="M 111.136719 155.324219 L 192.675781 138.539062 L 208.554688 215.671875 L 127.015625 232.457031 Z M 111.136719 155.324219 " clip-rule="nonzero"/></clipPath><clipPath id="905ad205da"><path d="M 111.136719 155.324219 L 192.675781 138.539062 L 208.554688 215.671875 L 127.015625 232.457031 Z M 111.136719 155.324219 " clip-rule="nonzero"/></clipPath><clipPath id="b6d05b19c2"><path d="M 144 215 L 192 215 L 192 226 L 144 226 Z M 144 215 " clip-rule="nonzero"/></clipPath><clipPath id="8798d5bf37"><path d="M 111.136719 155.324219 L 192.675781 138.539062 L 208.554688 215.671875 L 127.015625 232.457031 Z M 111.136719 155.324219 " clip-rule="nonzero"/></clipPath><clipPath id="c2d8f9a44f"><path d="M 111.136719 155.324219 L 192.675781 138.539062 L 208.554688 215.671875 L 127.015625 232.457031 Z M 111.136719 155.324219 " clip-rule="nonzero"/></clipPath><clipPath id="f22ded8e3a"><path d="M 186 162 L 197 162 L 197 179 L 186 179 Z M 186 162 " clip-rule="nonzero"/></clipPath><clipPath id="ae2a8f07ae"><path d="M 111.136719 155.324219 L 192.675781 138.539062 L 208.554688 215.671875 L 127.015625 232.457031 Z M 111.136719 155.324219 " clip-rule="nonzero"/></clipPath><clipPath id="2b1bca0883"><path d="M 111.136719 155.324219 L 192.675781 138.539062 L 208.554688 215.671875 L 127.015625 232.457031 Z M 111.136719 155.324219 " clip-rule="nonzero"/></clipPath><clipPath id="903b3f2430"><path d="M 118 178 L 133 178 L 133 190 L 118 190 Z M 118 178 " clip-rule="nonzero"/></clipPath><clipPath id="d1f27ccb4d"><path d="M 111.136719 155.324219 L 192.675781 138.539062 L 208.554688 215.671875 L 127.015625 232.457031 Z M 111.136719 155.324219 " clip-rule="nonzero"/></clipPath><clipPath id="dd931842c5"><path d="M 111.136719 155.324219 L 192.675781 138.539062 L 208.554688 215.671875 L 127.015625 232.457031 Z M 111.136719 155.324219 " clip-rule="nonzero"/></clipPath><clipPath id="3a0fa9ef72"><path d="M 176 150 L 183 150 L 183 176 L 176 176 Z M 176 150 " clip-rule="nonzero"/></clipPath><clipPath id="db2ec61103"><path d="M 111.136719 155.324219 L 192.675781 138.539062 L 208.554688 215.671875 L 127.015625 232.457031 Z M 111.136719 155.324219 " clip-rule="nonzero"/></clipPath><clipPath id="741bb48010"><path d="M 111.136719 155.324219 L 192.675781 138.539062 L 208.554688 215.671875 L 127.015625 232.457031 Z M 111.136719 155.324219 " clip-rule="nonzero"/></clipPath></defs><path fill="#040606" d="M 264.277344 239.734375 L 263.730469 245.210938 L 230.425781 245.210938 L 229.878906 239.734375 C 229.808594 239.074219 230.117188 238.621094 230.308594 238.410156 C 230.5 238.199219 230.925781 237.84375 231.585938 237.84375 L 262.566406 237.84375 C 263.230469 237.84375 263.652344 238.199219 263.84375 238.410156 C 264.035156 238.621094 264.34375 239.074219 264.277344 239.734375 Z M 259.226562 274.675781 L 234.929688 274.675781 C 234.046875 274.675781 233.304688 274.011719 233.21875 273.121094 L 230.914062 250.121094 L 263.238281 250.121094 L 260.933594 273.121094 C 260.847656 274.011719 260.109375 274.675781 259.226562 274.675781 Z M 231.585938 232.933594 C 229.714844 232.933594 227.929688 233.730469 226.671875 235.121094 C 225.410156 236.503906 224.796875 238.363281 224.988281 240.222656 L 228.320312 273.617188 C 228.667969 277.015625 231.511719 279.585938 234.929688 279.585938 L 259.226562 279.585938 C 262.644531 279.585938 265.484375 277.015625 265.832031 273.617188 L 269.164062 240.222656 C 269.355469 238.363281 268.742188 236.503906 267.484375 235.121094 C 266.226562 233.730469 264.4375 232.933594 262.566406 232.933594 L 231.585938 232.933594 " fill-opacity="1" fill-rule="nonzero"/><g clip-path="url(#49fe940c81)"><path fill="#040606" d="M 281.9375 238.410156 C 282.128906 238.199219 282.550781 237.84375 283.214844 237.84375 L 314.191406 237.84375 C 314.855469 237.84375 315.277344 238.199219 315.46875 238.410156 C 315.664062 238.621094 315.96875 239.074219 315.902344 239.734375 L 315.355469 245.210938 L 282.050781 245.210938 L 281.503906 239.734375 C 281.4375 239.074219 281.742188 238.621094 281.9375 238.410156 Z M 310.851562 274.675781 L 286.554688 274.675781 C 285.671875 274.675781 284.933594 274.011719 284.847656 273.121094 L 282.542969 250.121094 L 314.867188 250.121094 L 312.5625 273.121094 C 312.472656 274.011719 311.734375 274.675781 310.851562 274.675781 Z M 286.554688 279.585938 L 310.851562 279.585938 C 314.269531 279.585938 317.113281 277.015625 317.457031 273.617188 L 320.789062 240.222656 C 320.984375 238.363281 320.367188 236.503906 319.109375 235.121094 C 317.851562 233.730469 316.066406 232.933594 314.191406 232.933594 L 283.214844 232.933594 C 281.339844 232.933594 279.554688 233.730469 278.296875 235.121094 C 277.039062 236.503906 276.425781 238.363281 276.617188 240.222656 L 279.949219 273.617188 C 280.292969 277.015625 283.136719 279.585938 286.554688 279.585938 " fill-opacity="1" fill-rule="nonzero"/></g><g clip-path="url(#db92e27e79)"><path fill="#040606" d="M 212.21875 238.410156 C 212.410156 238.621094 212.714844 239.074219 212.648438 239.734375 L 212.101562 245.210938 L 178.796875 245.210938 L 178.25 239.734375 C 178.183594 239.074219 178.5 238.621094 178.683594 238.410156 C 178.875 238.199219 179.296875 237.84375 179.960938 237.84375 L 210.941406 237.84375 C 211.601562 237.84375 212.023438 238.199219 212.21875 238.410156 Z M 207.597656 274.675781 L 183.3125 274.675781 C 182.417969 274.675781 181.679688 274.011719 181.59375 273.121094 L 179.289062 250.121094 L 211.613281 250.121094 L 209.308594 273.121094 C 209.222656 274.011719 208.480469 274.675781 207.597656 274.675781 Z M 175.042969 235.121094 C 173.785156 236.503906 173.171875 238.363281 173.363281 240.222656 L 176.703125 273.617188 C 177.042969 277.015625 179.882812 279.585938 183.3125 279.585938 L 207.597656 279.585938 C 211.015625 279.585938 213.859375 277.015625 214.207031 273.617188 L 217.539062 240.222656 C 217.730469 238.363281 217.113281 236.503906 215.855469 235.121094 C 214.597656 233.730469 212.8125 232.933594 210.941406 232.933594 L 179.960938 232.933594 C 178.085938 232.933594 176.292969 233.730469 175.042969 235.121094 " fill-opacity="1" fill-rule="nonzero"/></g><path fill="#040606" d="M 296.246094 225.566406 C 296.246094 226.921875 297.347656 228.023438 298.703125 228.023438 C 300.058594 228.023438 301.160156 226.921875 301.160156 225.566406 L 301.160156 220.65625 C 301.160156 217.953125 298.953125 215.746094 296.246094 215.746094 L 249.535156 215.746094 L 249.535156 210.835938 C 249.535156 209.484375 248.429688 208.382812 247.078125 208.382812 C 245.722656 208.382812 244.617188 209.484375 244.617188 210.835938 L 244.617188 215.746094 L 197.910156 215.746094 C 195.199219 215.746094 192.992188 217.953125 192.992188 220.65625 L 192.992188 225.566406 C 192.992188 226.921875 194.097656 228.023438 195.449219 228.023438 C 196.804688 228.023438 197.910156 226.921875 197.910156 225.566406 L 197.910156 220.65625 L 244.617188 220.65625 L 244.617188 225.566406 C 244.617188 226.921875 245.722656 228.023438 247.078125 228.023438 C 248.429688 228.023438 249.535156 226.921875 249.535156 225.566406 L 249.535156 220.65625 L 296.246094 220.65625 L 296.246094 225.566406 " fill-opacity="1" fill-rule="nonzero"/><path fill="#040606" d="M 213.628906 181.9375 C 213.628906 181.9375 219.265625 173.527344 219.277344 173.507812 C 220.015625 172.394531 219.699219 170.84375 218.59375 170.105469 L 216.367188 168.695312 L 226.746094 166.679688 L 228.90625 177.019531 C 228.90625 177.019531 226.765625 175.589844 226.757812 175.582031 C 225.640625 174.832031 224.097656 175.148438 223.347656 176.261719 L 215.117188 188.566406 C 214.050781 188.242188 212.667969 187.386719 212.667969 185.125 C 212.667969 183.972656 212.996094 182.878906 213.628906 181.9375 Z M 234.792969 198.578125 L 220.042969 198.578125 C 216.578125 198.578125 213.6875 196.171875 212.898438 192.960938 C 213.984375 193.410156 215.15625 193.667969 216.296875 193.667969 L 234.792969 193.667969 Z M 220.042969 203.488281 L 234.792969 203.488281 C 237.503906 203.488281 239.710938 201.285156 239.710938 198.578125 L 239.710938 193.667969 C 239.710938 190.964844 237.503906 188.757812 234.792969 188.757812 L 220.898438 188.757812 L 226.074219 181.027344 C 226.074219 181.027344 226.191406 181.113281 226.21875 181.132812 C 227.890625 182.207031 230.023438 182.1875 231.671875 181.058594 C 233.304688 179.945312 234.101562 177.96875 233.699219 176.050781 L 231.566406 165.691406 C 231.296875 164.40625 230.558594 163.3125 229.484375 162.59375 C 228.398438 161.875 227.09375 161.625 225.835938 161.875 C 225.835938 161.875 215.453125 163.871094 215.445312 163.871094 C 211.257812 164.675781 210.039062 170.382812 213.65625 172.710938 L 213.820312 172.828125 L 209.539062 179.207031 C 208.367188 180.960938 207.75 182.992188 207.75 185.125 L 207.75 191.214844 C 207.75 197.984375 213.265625 203.488281 220.042969 203.488281 " fill-opacity="1" fill-rule="nonzero"/><path fill="#040606" d="M 236.195312 141.867188 C 238.183594 138.308594 241.140625 136.71875 244.347656 137.351562 C 243.515625 138.136719 242.851562 139.058594 242.378906 140.066406 L 242.371094 140.054688 L 234.082031 155.976562 L 229.878906 153.578125 Z M 259.792969 151.277344 C 260.519531 152.410156 262.078125 152.746094 263.199219 152.003906 C 263.199219 152.003906 265.390625 150.519531 265.390625 150.558594 L 263.085938 160.828125 L 252.714844 158.699219 L 254.902344 157.300781 C 256.035156 156.582031 256.371094 155.027344 255.644531 153.90625 L 247.460938 141.160156 C 248.179688 140.324219 249.507812 139.394531 251.582031 140.285156 C 252.636719 140.753906 253.53125 141.511719 254.136719 142.460938 C 254.136719 142.460938 259.78125 151.257812 259.792969 151.277344 Z M 227.449219 157.847656 C 227.449219 157.847656 231.652344 160.234375 231.652344 160.246094 C 234.046875 161.597656 237.183594 160.667969 238.453125 158.238281 L 244.78125 146.078125 L 250.179688 154.488281 C 250.179688 154.488281 250.054688 154.574219 250.054688 154.574219 C 246.460938 156.878906 247.527344 162.585938 251.695312 163.457031 C 251.695312 163.457031 262.039062 165.632812 262.046875 165.632812 C 264.601562 166.171875 267.261719 164.578125 267.847656 161.933594 C 267.847656 161.933594 270.183594 151.640625 270.191406 151.601562 C 271.105469 147.429688 266.371094 144.113281 262.769531 146.441406 L 262.605469 146.546875 L 258.273438 139.804688 C 257.140625 138.050781 255.519531 136.667969 253.570312 135.796875 L 247.980469 133.359375 C 241.777344 130.65625 235.476562 133.0625 231.882812 139.519531 L 225.546875 151.25 C 224.269531 153.617188 225.09375 156.511719 227.449219 157.847656 " fill-opacity="1" fill-rule="nonzero"/><path fill="#040606" d="M 280.253906 184 C 282.175781 186.886719 281.773438 190.628906 279.535156 193.074219 C 279.304688 191.914062 278.871094 190.8125 278.230469 189.851562 L 267.964844 174.496094 L 272.054688 171.753906 Z M 259.378906 198.589844 C 258.015625 198.589844 256.921875 199.691406 256.921875 201.042969 L 256.949219 203.472656 L 249.535156 196.191406 L 256.921875 188.730469 L 256.921875 191.222656 C 256.921875 192.574219 258.015625 193.679688 259.378906 193.679688 L 274.648438 193.679688 C 274.964844 194.734375 275.03125 196.34375 273.167969 197.609375 L 273.148438 197.621094 C 272.179688 198.253906 271.085938 198.589844 269.96875 198.589844 Z M 265.253906 170.402344 C 263.027344 171.878906 262.382812 174.976562 263.890625 177.203125 L 271.59375 188.769531 C 271.59375 188.769531 261.835938 188.769531 261.835938 188.699219 C 261.808594 186.714844 260.597656 184.949219 258.753906 184.210938 C 256.921875 183.472656 254.835938 183.90625 253.453125 185.304688 L 246.058594 192.730469 C 244.128906 194.65625 244.117188 197.679688 246.070312 199.625 C 246.070312 199.625 253.472656 206.941406 253.472656 206.953125 C 256.496094 209.945312 261.886719 207.804688 261.835938 203.5 L 269.96875 203.5 C 272.042969 203.5 274.082031 202.886719 275.886719 201.707031 L 280.945312 198.320312 C 286.574219 194.5625 288.101562 186.925781 284.355469 181.285156 C 284.355469 181.285156 276.175781 169.066406 276.164062 169.050781 C 274.667969 166.8125 271.582031 166.179688 269.347656 167.675781 C 269.347656 167.675781 265.265625 170.390625 265.253906 170.402344 " fill-opacity="1" fill-rule="nonzero"/><g clip-path="url(#9f73635491)"><g clip-path="url(#76981b69b7)"><g clip-path="url(#2fb0004e0a)"><g clip-path="url(#47c874e9f0)"><path fill="url(#997967d77e)" d="M 194.535156 129.011719 L 99.996094 148.472656 L 119.847656 244.90625 L 214.386719 225.449219 Z M 194.535156 129.011719 " fill-rule="nonzero"/></g></g></g></g><g clip-path="url(#81ae966fc1)"><g clip-path="url(#9abf95dc6f)"><g clip-path="url(#893eeb78af)"><path fill="#77b255" d="M 129.984375 159.042969 C 129.898438 159.078125 129.832031 159.144531 129.792969 159.234375 C 129.753906 159.328125 129.75 159.421875 129.78125 159.519531 C 129.78125 159.519531 131.335938 164.972656 132.753906 170.738281 C 133.464844 173.621094 134.132812 176.578125 134.5625 178.960938 C 134.777344 180.15625 134.929688 181.207031 134.996094 182.023438 C 135.058594 182.835938 135.011719 183.4375 134.945312 183.59375 C 134.902344 183.691406 134.898438 183.789062 134.933594 183.894531 C 134.96875 183.996094 135.03125 184.074219 135.125 184.121094 C 135.214844 184.167969 135.308594 184.175781 135.40625 184.140625 C 135.5 184.105469 135.570312 184.042969 135.613281 183.945312 C 135.816406 183.472656 135.800781 182.84375 135.730469 181.984375 C 135.664062 181.121094 135.5 180.046875 135.28125 178.839844 C 134.847656 176.421875 134.171875 173.449219 133.460938 170.554688 C 132.039062 164.773438 130.480469 159.300781 130.480469 159.300781 C 130.449219 159.1875 130.382812 159.105469 130.285156 159.054688 C 130.183594 159.003906 130.085938 158.996094 129.984375 159.042969 Z M 129.984375 159.042969 " fill-opacity="1" fill-rule="nonzero"/></g></g></g><g clip-path="url(#fe0cdb16d8)"><g clip-path="url(#1c8335bb95)"><g clip-path="url(#715c49b833)"><path fill="#77b255" d="M 140.769531 151.25 C 140.675781 151.285156 140.609375 151.351562 140.566406 151.445312 C 140.523438 151.542969 140.523438 151.640625 140.554688 151.742188 C 140.554688 151.742188 141.523438 154.648438 143.789062 157.148438 C 146.050781 159.652344 149.691406 161.765625 154.804688 160.15625 C 160.105469 158.484375 162.613281 156.175781 163.804688 153.765625 C 164.992188 151.359375 164.867188 148.917969 165.066406 147.074219 C 165.078125 146.964844 165.050781 146.867188 164.988281 146.78125 C 164.925781 146.695312 164.84375 146.644531 164.742188 146.628906 C 164.640625 146.613281 164.550781 146.640625 164.472656 146.703125 C 164.390625 146.769531 164.347656 146.855469 164.335938 146.960938 C 164.121094 148.914062 164.230469 151.191406 163.144531 153.390625 C 162.054688 155.589844 159.769531 157.765625 154.578125 159.402344 C 149.710938 160.933594 146.441406 158.980469 144.308594 156.617188 C 142.171875 154.257812 141.238281 151.503906 141.238281 151.503906 C 141.207031 151.398438 141.144531 151.320312 141.050781 151.273438 C 140.957031 151.222656 140.863281 151.214844 140.769531 151.25 Z M 140.769531 151.25 " fill-opacity="1" fill-rule="nonzero"/></g></g></g><g clip-path="url(#3442726a61)"><g clip-path="url(#6b60747fd7)"><g clip-path="url(#905ad205da)"><path fill="#77b255" d="M 143.566406 150.371094 L 143.105469 150.953125 C 143.125 150.976562 143.144531 150.984375 143.160156 151.003906 C 146.050781 154.273438 148.742188 155.746094 151.160156 156.042969 C 153.597656 156.339844 155.710938 155.441406 157.429688 154.152344 C 160.871094 151.570312 162.796875 147.363281 162.796875 147.363281 L 162.242188 146.878906 C 156.753906 151.539062 152.074219 152.378906 148.773438 152.085938 C 145.472656 151.792969 143.566406 150.371094 143.566406 150.371094 Z M 161.175781 148.695312 C 160.347656 150.101562 159.082031 151.957031 157.007812 153.515625 C 155.386719 154.730469 153.445312 155.539062 151.222656 155.269531 C 149.429688 155.050781 147.414062 154.058594 145.222656 152.019531 C 146.140625 152.375 147.285156 152.726562 148.734375 152.855469 C 151.886719 153.136719 156.214844 152.386719 161.175781 148.695312 Z M 161.175781 148.695312 " fill-opacity="1" fill-rule="nonzero"/></g></g></g><g clip-path="url(#b6d05b19c2)"><g clip-path="url(#8798d5bf37)"><g clip-path="url(#c2d8f9a44f)"><path fill="#77b255" d="M 144.300781 225.195312 C 144.203125 225.222656 144.128906 225.28125 144.078125 225.371094 C 144.027344 225.464844 144.015625 225.5625 144.042969 225.667969 C 144.070312 225.773438 144.125 225.855469 144.214844 225.910156 C 144.300781 225.964844 144.394531 225.980469 144.492188 225.957031 L 190.726562 216.589844 C 190.828125 216.570312 190.90625 216.515625 190.960938 216.425781 C 191.015625 216.335938 191.03125 216.238281 191.011719 216.128906 C 190.988281 216.023438 190.933594 215.941406 190.847656 215.878906 C 190.761719 215.820312 190.667969 215.800781 190.570312 215.820312 L 144.335938 225.1875 C 144.324219 225.191406 144.3125 225.191406 144.300781 225.195312 Z M 144.300781 225.195312 " fill-opacity="1" fill-rule="nonzero"/></g></g></g><g clip-path="url(#f22ded8e3a)"><g clip-path="url(#ae2a8f07ae)"><g clip-path="url(#2b1bca0883)"><path fill="#77b255" d="M 196.070312 162.566406 C 195.988281 162.59375 195.925781 162.648438 195.882812 162.730469 L 186.496094 177.941406 C 186.445312 178.03125 186.429688 178.128906 186.453125 178.234375 C 186.472656 178.34375 186.527344 178.425781 186.613281 178.484375 C 186.703125 178.542969 186.792969 178.5625 186.894531 178.542969 C 186.992188 178.519531 187.066406 178.464844 187.121094 178.375 L 196.496094 163.164062 C 196.59375 163.011719 196.589844 162.859375 196.480469 162.707031 C 196.371094 162.554688 196.234375 162.507812 196.070312 162.566406 Z M 196.070312 162.566406 " fill-opacity="1" fill-rule="nonzero"/></g></g></g><g clip-path="url(#903b3f2430)"><g clip-path="url(#d1f27ccb4d)"><g clip-path="url(#dd931842c5)"><path fill="#77b255" d="M 118.335938 178.566406 C 118.1875 178.613281 118.101562 178.71875 118.085938 178.886719 C 118.066406 179.050781 118.125 179.179688 118.257812 179.269531 L 132.125 189.121094 C 132.210938 189.195312 132.308594 189.226562 132.414062 189.210938 C 132.523438 189.195312 132.605469 189.136719 132.664062 189.042969 C 132.722656 188.945312 132.738281 188.839844 132.707031 188.730469 C 132.679688 188.617188 132.617188 188.53125 132.519531 188.476562 L 118.648438 178.625 C 118.550781 178.554688 118.449219 178.53125 118.335938 178.566406 Z M 118.335938 178.566406 " fill-opacity="1" fill-rule="nonzero"/></g></g></g><g clip-path="url(#3a0fa9ef72)"><g clip-path="url(#db2ec61103)"><g clip-path="url(#741bb48010)"><path fill="#77b255" d="M 176.992188 150.074219 C 176.828125 150.136719 176.75 150.261719 176.753906 150.449219 C 176.753906 150.449219 176.929688 155.363281 177.6875 160.925781 C 178.070312 163.707031 178.589844 166.65625 179.320312 169.246094 C 180.050781 171.839844 180.972656 174.078125 182.21875 175.460938 C 182.285156 175.550781 182.375 175.597656 182.480469 175.605469 C 182.585938 175.613281 182.679688 175.578125 182.753906 175.503906 C 182.832031 175.425781 182.867188 175.328125 182.863281 175.214844 C 182.859375 175.101562 182.816406 175.003906 182.738281 174.929688 C 181.652344 173.722656 180.734375 171.574219 180.023438 169.039062 C 179.3125 166.507812 178.789062 163.582031 178.414062 160.828125 C 177.660156 155.3125 177.488281 150.449219 177.488281 150.449219 C 177.484375 150.3125 177.433594 150.207031 177.328125 150.128906 C 177.222656 150.046875 177.109375 150.03125 176.992188 150.074219 Z M 176.992188 150.074219 " fill-opacity="1" fill-rule="nonzero"/></g></g></g><path fill="#000000" d="M 115.480469 114.734375 C 115.59375 104.015625 107.003906 95.242188 96.285156 95.117188 C 85.5625 95.003906 76.773438 103.589844 76.660156 114.308594 C 76.542969 125.015625 85.136719 133.796875 95.859375 133.914062 C 106.574219 134.035156 115.363281 125.441406 115.480469 114.734375 " fill-opacity="1" fill-rule="nonzero"/><path fill="#000000" d="M 45.222656 252.101562 L 62.796875 241.316406 L 66.332031 223.472656 C 62.292969 220.316406 59.804688 215.542969 59.597656 210.378906 C 59.539062 208.992188 59.648438 207.597656 59.921875 206.242188 L 70.011719 155.550781 C 71.859375 146.15625 80.972656 140.046875 90.367188 141.894531 C 91.964844 142.203125 93.417969 142.8125 94.839844 143.417969 C 97.355469 144.5 99.160156 146.617188 100.460938 148.914062 L 100.503906 148.984375 C 104.335938 155.816406 112.160156 165.777344 117.894531 171.113281 L 118.082031 171.289062 L 134.375 169.691406 C 137.917969 169.335938 141.066406 171.9375 141.394531 175.484375 C 141.71875 179.015625 139.125 182.132812 135.589844 182.460938 L 118.425781 184.035156 C 116.203125 184.242188 113.96875 183.664062 112.125 182.402344 L 100.503906 174.464844 L 91.113281 207.222656 C 90.316406 210.070312 91.445312 213.109375 93.914062 214.75 L 112.003906 226.789062 C 114.179688 228.304688 115.523438 230.757812 115.628906 233.410156 L 117.140625 270.53125 C 117.351562 275.550781 113.441406 279.789062 108.417969 279.992188 C 103.394531 280.191406 99.160156 276.292969 98.953125 271.273438 L 97.824219 243.570312 L 82.664062 233.945312 L 80.617188 249.816406 C 80.0625 252.207031 78.234375 254.09375 75.871094 254.742188 L 49.582031 268.660156 C 44.992188 269.921875 40.257812 267.203125 39.039062 262.601562 C 37.808594 257.984375 40.972656 254.648438 45.222656 252.101562 " fill-opacity="1" fill-rule="nonzero"/></svg>