<svg xmlns="http://www.w3.org/2000/svg" xmlns:xlink="http://www.w3.org/1999/xlink" width="500" zoomAndPan="magnify" viewBox="0 0 375 374.999991" height="500" preserveAspectRatio="xMidYMid meet" version="1.0"><defs><clipPath id="4b515fa8fa"><path d="M 84.761719 178.753906 L 177.761719 178.753906 L 177.761719 286.753906 L 84.761719 286.753906 Z M 84.761719 178.753906 " clip-rule="nonzero"/></clipPath><clipPath id="7d213c13f9"><path d="M 119 117 L 201 117 L 201 202 L 119 202 Z M 119 117 " clip-rule="nonzero"/></clipPath><clipPath id="cec60b8958"><path d="M 114.019531 127.660156 L 195.558594 110.875 L 211.4375 188.007812 L 129.894531 204.792969 Z M 114.019531 127.660156 " clip-rule="nonzero"/></clipPath><clipPath id="8808fabeef"><path d="M 114.019531 127.660156 L 195.558594 110.875 L 211.4375 188.007812 L 129.894531 204.792969 Z M 114.019531 127.660156 " clip-rule="nonzero"/></clipPath><clipPath id="e83fead593"><path d="M 119.425781 153 L 134.179688 163.917969 L 135.839844 163.578125 L 138.242188 159.738281 L 146.507812 199.902344 L 147.304688 201.191406 L 193.609375 191.511719 L 194.8125 190.246094 L 186.191406 150.304688 L 190.328125 152.941406 L 191.675781 152.375 L 200.71875 136.847656 L 200.316406 134.894531 L 181.429688 121.339844 L 163.851562 117.402344 C 163.851562 117.402344 159.386719 125.441406 146.421875 121.28125 L 132.3125 130.289062 L 119.421875 153.003906 Z M 119.425781 153 " clip-rule="nonzero"/></clipPath><radialGradient gradientTransform="matrix(0.236873, 1.150698, -0.808232, 0.166356, 469.745693, -116.087487)" gradientUnits="userSpaceOnUse" r="66.008514" cx="175.679779" id="f0405e4635" cy="431.352109" fx="175.679779" fy="431.352109"><stop stop-opacity="1" stop-color="rgb(100%, 35.975647%, 35.975647%)" offset="0"/><stop stop-opacity="1" stop-color="rgb(100%, 35.743713%, 35.743713%)" offset="0.03125"/><stop stop-opacity="1" stop-color="rgb(100%, 35.527039%, 35.527039%)" offset="0.0585938"/><stop stop-opacity="1" stop-color="rgb(100%, 35.31189%, 35.31189%)" offset="0.0859375"/><stop stop-opacity="1" stop-color="rgb(100%, 35.095215%, 35.095215%)" offset="0.113281"/><stop stop-opacity="1" stop-color="rgb(100%, 34.893799%, 34.893799%)" offset="0.140625"/><stop stop-opacity="1" stop-color="rgb(100%, 34.709167%, 34.709167%)" offset="0.164062"/><stop stop-opacity="1" stop-color="rgb(100%, 34.524536%, 34.524536%)" offset="0.1875"/><stop stop-opacity="1" stop-color="rgb(100%, 34.338379%, 34.338379%)" offset="0.210938"/><stop stop-opacity="1" stop-color="rgb(99.967957%, 34.106445%, 34.106445%)" offset="0.234375"/><stop stop-opacity="1" stop-color="rgb(99.884033%, 33.860779%, 33.860779%)" offset="0.257812"/><stop stop-opacity="1" stop-color="rgb(99.781799%, 33.647156%, 33.647156%)" offset="0.265625"/><stop stop-opacity="1" stop-color="rgb(99.679565%, 33.433533%, 33.433533%)" offset="0.273438"/><stop stop-opacity="1" stop-color="rgb(99.577332%, 33.221436%, 33.221436%)" offset="0.28125"/><stop stop-opacity="1" stop-color="rgb(99.473572%, 33.007812%, 33.007812%)" offset="0.289062"/><stop stop-opacity="1" stop-color="rgb(99.371338%, 32.794189%, 32.794189%)" offset="0.296875"/><stop stop-opacity="1" stop-color="rgb(99.269104%, 32.580566%, 32.580566%)" offset="0.304688"/><stop stop-opacity="1" stop-color="rgb(99.16687%, 32.366943%, 32.366943%)" offset="0.3125"/><stop stop-opacity="1" stop-color="rgb(99.064636%, 32.154846%, 32.154846%)" offset="0.320312"/><stop stop-opacity="1" stop-color="rgb(98.962402%, 31.941223%, 31.941223%)" offset="0.328125"/><stop stop-opacity="1" stop-color="rgb(98.858643%, 31.7276%, 31.7276%)" offset="0.335938"/><stop stop-opacity="1" stop-color="rgb(98.756409%, 31.513977%, 31.513977%)" offset="0.34375"/><stop stop-opacity="1" stop-color="rgb(98.654175%, 31.300354%, 31.300354%)" offset="0.351562"/><stop stop-opacity="1" stop-color="rgb(98.551941%, 31.086731%, 31.086731%)" offset="0.359375"/><stop stop-opacity="1" stop-color="rgb(98.449707%, 30.874634%, 30.874634%)" offset="0.367188"/><stop stop-opacity="1" stop-color="rgb(98.347473%, 30.661011%, 30.661011%)" offset="0.375"/><stop stop-opacity="1" stop-color="rgb(98.243713%, 30.447388%, 30.447388%)" offset="0.382812"/><stop stop-opacity="1" stop-color="rgb(98.141479%, 30.233765%, 30.233765%)" offset="0.390625"/><stop stop-opacity="1" stop-color="rgb(98.039246%, 30.020142%, 30.020142%)" offset="0.398438"/><stop stop-opacity="1" stop-color="rgb(97.937012%, 29.808044%, 29.808044%)" offset="0.40625"/><stop stop-opacity="1" stop-color="rgb(97.834778%, 29.594421%, 29.594421%)" offset="0.414062"/><stop stop-opacity="1" stop-color="rgb(97.732544%, 29.380798%, 29.380798%)" offset="0.421875"/><stop stop-opacity="1" stop-color="rgb(97.628784%, 29.167175%, 29.167175%)" offset="0.429688"/><stop stop-opacity="1" stop-color="rgb(97.52655%, 28.953552%, 28.953552%)" offset="0.4375"/><stop stop-opacity="1" stop-color="rgb(97.424316%, 28.739929%, 28.739929%)" offset="0.445312"/><stop stop-opacity="1" stop-color="rgb(97.322083%, 28.527832%, 28.527832%)" offset="0.453125"/><stop stop-opacity="1" stop-color="rgb(97.219849%, 28.314209%, 28.314209%)" offset="0.460938"/><stop stop-opacity="1" stop-color="rgb(97.117615%, 28.100586%, 28.100586%)" offset="0.46875"/><stop stop-opacity="1" stop-color="rgb(97.013855%, 27.886963%, 27.886963%)" offset="0.476562"/><stop stop-opacity="1" stop-color="rgb(96.911621%, 27.67334%, 27.67334%)" offset="0.484375"/><stop stop-opacity="1" stop-color="rgb(96.809387%, 27.459717%, 27.459717%)" offset="0.492188"/><stop stop-opacity="1" stop-color="rgb(96.707153%, 27.24762%, 27.24762%)" offset="0.5"/><stop stop-opacity="1" stop-color="rgb(96.578979%, 26.980591%, 26.980591%)" offset="0.507812"/><stop stop-opacity="1" stop-color="rgb(96.424866%, 26.660156%, 26.660156%)" offset="0.519531"/><stop stop-opacity="1" stop-color="rgb(96.270752%, 26.339722%, 26.339722%)" offset="0.53125"/><stop stop-opacity="1" stop-color="rgb(96.118164%, 26.020813%, 26.020813%)" offset="0.542969"/><stop stop-opacity="1" stop-color="rgb(95.96405%, 25.700378%, 25.700378%)" offset="0.554688"/><stop stop-opacity="1" stop-color="rgb(95.809937%, 25.379944%, 25.379944%)" offset="0.566406"/><stop stop-opacity="1" stop-color="rgb(95.655823%, 25.059509%, 25.059509%)" offset="0.578125"/><stop stop-opacity="1" stop-color="rgb(95.503235%, 24.740601%, 24.740601%)" offset="0.589844"/><stop stop-opacity="1" stop-color="rgb(95.349121%, 24.420166%, 24.420166%)" offset="0.601562"/><stop stop-opacity="1" stop-color="rgb(95.195007%, 24.099731%, 24.099731%)" offset="0.613281"/><stop stop-opacity="1" stop-color="rgb(95.040894%, 23.779297%, 23.779297%)" offset="0.625"/><stop stop-opacity="1" stop-color="rgb(94.91272%, 23.513794%, 23.513794%)" offset="0.636719"/><stop stop-opacity="1" stop-color="rgb(94.810486%, 23.300171%, 23.300171%)" offset="0.644531"/><stop stop-opacity="1" stop-color="rgb(94.708252%, 23.086548%, 23.086548%)" offset="0.652344"/><stop stop-opacity="1" stop-color="rgb(94.606018%, 22.872925%, 22.872925%)" offset="0.660156"/><stop stop-opacity="1" stop-color="rgb(94.503784%, 22.659302%, 22.659302%)" offset="0.667969"/><stop stop-opacity="1" stop-color="rgb(94.40155%, 22.447205%, 22.447205%)" offset="0.675781"/><stop stop-opacity="1" stop-color="rgb(94.297791%, 22.233582%, 22.233582%)" offset="0.683594"/><stop stop-opacity="1" stop-color="rgb(94.195557%, 22.019958%, 22.019958%)" offset="0.691406"/><stop stop-opacity="1" stop-color="rgb(94.093323%, 21.806335%, 21.806335%)" offset="0.699219"/><stop stop-opacity="1" stop-color="rgb(93.991089%, 21.592712%, 21.592712%)" offset="0.707031"/><stop stop-opacity="1" stop-color="rgb(93.888855%, 21.379089%, 21.379089%)" offset="0.714844"/><stop stop-opacity="1" stop-color="rgb(93.786621%, 21.166992%, 21.166992%)" offset="0.722656"/><stop stop-opacity="1" stop-color="rgb(93.682861%, 20.953369%, 20.953369%)" offset="0.730469"/><stop stop-opacity="1" stop-color="rgb(93.580627%, 20.739746%, 20.739746%)" offset="0.738281"/><stop stop-opacity="1" stop-color="rgb(93.478394%, 20.526123%, 20.526123%)" offset="0.746094"/><stop stop-opacity="1" stop-color="rgb(93.35022%, 20.259094%, 20.259094%)" offset="0.753906"/><stop stop-opacity="1" stop-color="rgb(93.196106%, 19.940186%, 19.940186%)" offset="0.765625"/><stop stop-opacity="1" stop-color="rgb(93.043518%, 19.619751%, 19.619751%)" offset="0.777344"/><stop stop-opacity="1" stop-color="rgb(92.889404%, 19.299316%, 19.299316%)" offset="0.789062"/><stop stop-opacity="1" stop-color="rgb(92.735291%, 18.978882%, 18.978882%)" offset="0.800781"/><stop stop-opacity="1" stop-color="rgb(92.581177%, 18.659973%, 18.659973%)" offset="0.8125"/><stop stop-opacity="1" stop-color="rgb(92.453003%, 18.392944%, 18.392944%)" offset="0.824219"/><stop stop-opacity="1" stop-color="rgb(92.350769%, 18.179321%, 18.179321%)" offset="0.832031"/><stop stop-opacity="1" stop-color="rgb(92.248535%, 17.965698%, 17.965698%)" offset="0.839844"/><stop stop-opacity="1" stop-color="rgb(92.146301%, 17.752075%, 17.752075%)" offset="0.847656"/><stop stop-opacity="1" stop-color="rgb(92.044067%, 17.539978%, 17.539978%)" offset="0.855469"/><stop stop-opacity="1" stop-color="rgb(91.940308%, 17.326355%, 17.326355%)" offset="0.863281"/><stop stop-opacity="1" stop-color="rgb(91.838074%, 17.112732%, 17.112732%)" offset="0.871094"/><stop stop-opacity="1" stop-color="rgb(91.7099%, 16.845703%, 16.845703%)" offset="0.878906"/><stop stop-opacity="1" stop-color="rgb(91.557312%, 16.525269%, 16.525269%)" offset="0.890625"/><stop stop-opacity="1" stop-color="rgb(91.403198%, 16.20636%, 16.20636%)" offset="0.902344"/><stop stop-opacity="1" stop-color="rgb(91.275024%, 15.939331%, 15.939331%)" offset="0.914062"/><stop stop-opacity="1" stop-color="rgb(91.172791%, 15.725708%, 15.725708%)" offset="0.921875"/><stop stop-opacity="1" stop-color="rgb(91.070557%, 15.512085%, 15.512085%)" offset="0.929688"/><stop stop-opacity="1" stop-color="rgb(90.966797%, 15.299988%, 15.299988%)" offset="0.9375"/><stop stop-opacity="1" stop-color="rgb(90.838623%, 15.032959%, 15.032959%)" offset="0.945312"/><stop stop-opacity="1" stop-color="rgb(90.710449%, 14.76593%, 14.76593%)" offset="0.957031"/><stop stop-opacity="1" stop-color="rgb(90.608215%, 14.552307%, 14.552307%)" offset="0.964844"/><stop stop-opacity="1" stop-color="rgb(90.480042%, 14.285278%, 14.285278%)" offset="0.972656"/><stop stop-opacity="1" stop-color="rgb(90.351868%, 14.019775%, 14.019775%)" offset="0.984375"/><stop stop-opacity="1" stop-color="rgb(90.249634%, 13.806152%, 13.806152%)" offset="0.992188"/><stop stop-opacity="1" stop-color="rgb(90.19928%, 13.699341%, 13.699341%)" offset="1"/></radialGradient><clipPath id="00290cec32"><path d="M 132 131 L 139 131 L 139 157 L 132 157 Z M 132 131 " clip-rule="nonzero"/></clipPath><clipPath id="4a86a4e4a6"><path d="M 114.019531 127.660156 L 195.558594 110.875 L 211.4375 188.007812 L 129.894531 204.792969 Z M 114.019531 127.660156 " clip-rule="nonzero"/></clipPath><clipPath id="6f07909db3"><path d="M 114.019531 127.660156 L 195.558594 110.875 L 211.4375 188.007812 L 129.894531 204.792969 Z M 114.019531 127.660156 " clip-rule="nonzero"/></clipPath><clipPath id="6bfb18c8d5"><path d="M 143 118 L 168 118 L 168 134 L 143 134 Z M 143 118 " clip-rule="nonzero"/></clipPath><clipPath id="24c6e0fb6e"><path d="M 114.019531 127.660156 L 195.558594 110.875 L 211.4375 188.007812 L 129.894531 204.792969 Z M 114.019531 127.660156 " clip-rule="nonzero"/></clipPath><clipPath id="82be936c88"><path d="M 114.019531 127.660156 L 195.558594 110.875 L 211.4375 188.007812 L 129.894531 204.792969 Z M 114.019531 127.660156 " clip-rule="nonzero"/></clipPath><clipPath id="758509c985"><path d="M 145 119 L 166 119 L 166 129 L 145 129 Z M 145 119 " clip-rule="nonzero"/></clipPath><clipPath id="6e0dd20817"><path d="M 114.019531 127.660156 L 195.558594 110.875 L 211.4375 188.007812 L 129.894531 204.792969 Z M 114.019531 127.660156 " clip-rule="nonzero"/></clipPath><clipPath id="91b1813190"><path d="M 114.019531 127.660156 L 195.558594 110.875 L 211.4375 188.007812 L 129.894531 204.792969 Z M 114.019531 127.660156 " clip-rule="nonzero"/></clipPath><clipPath id="dfaf618fe3"><path d="M 146 188 L 194 188 L 194 199 L 146 199 Z M 146 188 " clip-rule="nonzero"/></clipPath><clipPath id="2ffcaeff85"><path d="M 114.019531 127.660156 L 195.558594 110.875 L 211.4375 188.007812 L 129.894531 204.792969 Z M 114.019531 127.660156 " clip-rule="nonzero"/></clipPath><clipPath id="15192ab580"><path d="M 114.019531 127.660156 L 195.558594 110.875 L 211.4375 188.007812 L 129.894531 204.792969 Z M 114.019531 127.660156 " clip-rule="nonzero"/></clipPath><clipPath id="35d26e6f7e"><path d="M 189 134 L 200 134 L 200 151 L 189 151 Z M 189 134 " clip-rule="nonzero"/></clipPath><clipPath id="5db8660d49"><path d="M 114.019531 127.660156 L 195.558594 110.875 L 211.4375 188.007812 L 129.894531 204.792969 Z M 114.019531 127.660156 " clip-rule="nonzero"/></clipPath><clipPath id="9a4b3f9c53"><path d="M 114.019531 127.660156 L 195.558594 110.875 L 211.4375 188.007812 L 129.894531 204.792969 Z M 114.019531 127.660156 " clip-rule="nonzero"/></clipPath><clipPath id="2cc7768488"><path d="M 120 150 L 136 150 L 136 162 L 120 162 Z M 120 150 " clip-rule="nonzero"/></clipPath><clipPath id="e3cce89ee6"><path d="M 114.019531 127.660156 L 195.558594 110.875 L 211.4375 188.007812 L 129.894531 204.792969 Z M 114.019531 127.660156 " clip-rule="nonzero"/></clipPath><clipPath id="ccecfe4204"><path d="M 114.019531 127.660156 L 195.558594 110.875 L 211.4375 188.007812 L 129.894531 204.792969 Z M 114.019531 127.660156 " clip-rule="nonzero"/></clipPath><clipPath id="68d4173bea"><path d="M 179 122 L 186 122 L 186 148 L 179 148 Z M 179 122 " clip-rule="nonzero"/></clipPath><clipPath id="6446addbed"><path d="M 114.019531 127.660156 L 195.558594 110.875 L 211.4375 188.007812 L 129.894531 204.792969 Z M 114.019531 127.660156 " clip-rule="nonzero"/></clipPath><clipPath id="71a2ac1294"><path d="M 114.019531 127.660156 L 195.558594 110.875 L 211.4375 188.007812 L 129.894531 204.792969 Z M 114.019531 127.660156 " clip-rule="nonzero"/></clipPath><clipPath id="5a65f69d29"><path d="M 206 88.433594 L 249 88.433594 L 249 131 L 206 131 Z M 206 88.433594 " clip-rule="nonzero"/></clipPath><clipPath id="766cc000f0"><path d="M 179 138 L 289 138 L 289 286.433594 L 179 286.433594 Z M 179 138 " clip-rule="nonzero"/></clipPath></defs><g clip-path="url(#4b515fa8fa)"><path fill="#000000" d="M 177.785156 185.738281 L 138.523438 185.738281 L 138.523438 178.753906 L 124.019531 178.753906 L 124.019531 185.738281 L 84.761719 185.738281 L 84.761719 198.695312 L 90.09375 198.695312 L 96.132812 286.753906 L 166.425781 286.753906 L 172.457031 198.679688 L 177.785156 198.679688 Z M 128.859375 183.613281 L 133.695312 183.613281 L 133.695312 185.738281 L 128.859375 185.738281 Z M 161.90625 281.894531 L 100.660156 281.894531 L 94.9375 198.679688 L 167.613281 198.679688 Z M 172.953125 193.820312 L 89.597656 193.820312 L 89.597656 190.582031 L 172.953125 190.582031 Z M 172.953125 193.820312 " fill-opacity="1" fill-rule="nonzero"/></g><path fill="#000000" d="M 128.859375 203.539062 L 133.695312 203.539062 L 133.695312 273.789062 L 128.859375 273.789062 Z M 128.859375 203.539062 " fill-opacity="1" fill-rule="nonzero"/><path fill="#000000" d="M 145.707031 273.648438 L 149.734375 203.398438 L 154.5625 203.679688 L 150.535156 273.929688 Z M 145.707031 273.648438 " fill-opacity="1" fill-rule="nonzero"/><path fill="#000000" d="M 107.65625 203.679688 L 112.480469 203.398438 L 116.511719 273.648438 L 111.683594 273.929688 Z M 107.65625 203.679688 " fill-opacity="1" fill-rule="nonzero"/><g clip-path="url(#7d213c13f9)"><g clip-path="url(#cec60b8958)"><g clip-path="url(#8808fabeef)"><g clip-path="url(#e83fead593)"><path fill="url(#f0405e4635)" d="M 197.414062 101.347656 L 102.875 120.804688 L 122.726562 217.242188 L 217.265625 197.785156 Z M 197.414062 101.347656 " fill-rule="nonzero"/></g></g></g></g><g clip-path="url(#00290cec32)"><g clip-path="url(#4a86a4e4a6)"><g clip-path="url(#6f07909db3)"><path fill="#ff3131" d="M 132.867188 131.375 C 132.777344 131.414062 132.714844 131.476562 132.675781 131.570312 C 132.636719 131.664062 132.632812 131.757812 132.664062 131.855469 C 132.664062 131.855469 134.214844 137.308594 135.636719 143.074219 C 136.34375 145.957031 137.015625 148.914062 137.445312 151.296875 C 137.660156 152.488281 137.8125 153.542969 137.875 154.355469 C 137.941406 155.171875 137.894531 155.773438 137.828125 155.929688 C 137.785156 156.027344 137.78125 156.125 137.8125 156.230469 C 137.847656 156.332031 137.914062 156.40625 138.003906 156.457031 C 138.097656 156.503906 138.191406 156.511719 138.285156 156.476562 C 138.382812 156.441406 138.449219 156.375 138.492188 156.277344 C 138.695312 155.808594 138.683594 155.179688 138.613281 154.316406 C 138.542969 153.457031 138.382812 152.382812 138.164062 151.175781 C 137.730469 148.757812 137.054688 145.785156 136.34375 142.890625 C 134.917969 137.105469 133.363281 131.636719 133.363281 131.636719 C 133.332031 131.523438 133.265625 131.441406 133.164062 131.390625 C 133.066406 131.335938 132.96875 131.332031 132.867188 131.375 Z M 132.867188 131.375 " fill-opacity="1" fill-rule="nonzero"/></g></g></g><g clip-path="url(#6bfb18c8d5)"><g clip-path="url(#24c6e0fb6e)"><g clip-path="url(#82be936c88)"><path fill="#ff3131" d="M 143.648438 123.585938 C 143.554688 123.621094 143.488281 123.6875 143.449219 123.78125 C 143.40625 123.878906 143.402344 123.976562 143.4375 124.078125 C 143.4375 124.078125 144.40625 126.984375 146.667969 129.484375 C 148.933594 131.988281 152.570312 134.097656 157.683594 132.488281 C 162.988281 130.820312 165.492188 128.511719 166.683594 126.101562 C 167.875 123.691406 167.746094 121.253906 167.949219 119.40625 C 167.960938 119.300781 167.933594 119.203125 167.871094 119.117188 C 167.808594 119.03125 167.726562 118.980469 167.625 118.964844 C 167.523438 118.949219 167.433594 118.972656 167.351562 119.039062 C 167.273438 119.101562 167.226562 119.1875 167.214844 119.296875 C 167.003906 121.25 167.113281 123.523438 166.023438 125.726562 C 164.9375 127.925781 162.652344 130.101562 157.460938 131.738281 C 152.59375 133.269531 149.324219 131.3125 147.1875 128.953125 C 145.054688 126.59375 144.121094 123.839844 144.121094 123.839844 C 144.085938 123.734375 144.023438 123.65625 143.933594 123.609375 C 143.839844 123.558594 143.746094 123.550781 143.648438 123.585938 Z M 143.648438 123.585938 " fill-opacity="1" fill-rule="nonzero"/></g></g></g><g clip-path="url(#758509c985)"><g clip-path="url(#6e0dd20817)"><g clip-path="url(#91b1813190)"><path fill="#ff3131" d="M 146.449219 122.707031 L 145.984375 123.289062 C 146.003906 123.308594 146.023438 123.320312 146.042969 123.339844 C 148.933594 126.609375 151.621094 128.082031 154.042969 128.378906 C 156.476562 128.675781 158.59375 127.777344 160.3125 126.488281 C 163.753906 123.90625 165.679688 119.699219 165.679688 119.699219 L 165.125 119.210938 C 159.636719 123.875 154.957031 124.714844 151.65625 124.421875 C 148.355469 124.128906 146.449219 122.707031 146.449219 122.707031 Z M 164.054688 121.03125 C 163.226562 122.433594 161.964844 124.292969 159.890625 125.847656 C 158.269531 127.066406 156.328125 127.875 154.105469 127.601562 C 152.308594 127.382812 150.296875 126.394531 148.101562 124.351562 C 149.019531 124.710938 150.164062 125.0625 151.617188 125.191406 C 154.769531 125.472656 159.09375 124.722656 164.054688 121.03125 Z M 164.054688 121.03125 " fill-opacity="1" fill-rule="nonzero"/></g></g></g><g clip-path="url(#dfaf618fe3)"><g clip-path="url(#2ffcaeff85)"><g clip-path="url(#15192ab580)"><path fill="#ff3131" d="M 147.183594 197.53125 C 147.085938 197.554688 147.011719 197.613281 146.960938 197.707031 C 146.910156 197.800781 146.898438 197.898438 146.921875 198.003906 C 146.949219 198.109375 147.007812 198.1875 147.09375 198.246094 C 147.183594 198.300781 147.277344 198.316406 147.375 198.292969 L 193.609375 188.921875 C 193.707031 188.90625 193.785156 188.851562 193.839844 188.761719 C 193.898438 188.671875 193.914062 188.574219 193.890625 188.464844 C 193.871094 188.359375 193.816406 188.273438 193.730469 188.214844 C 193.640625 188.152344 193.550781 188.132812 193.449219 188.15625 L 147.214844 197.523438 C 147.203125 197.527344 147.191406 197.527344 147.183594 197.53125 Z M 147.183594 197.53125 " fill-opacity="1" fill-rule="nonzero"/></g></g></g><g clip-path="url(#35d26e6f7e)"><g clip-path="url(#5db8660d49)"><g clip-path="url(#9a4b3f9c53)"><path fill="#ff3131" d="M 198.949219 134.898438 C 198.867188 134.929688 198.804688 134.984375 198.761719 135.0625 L 189.378906 150.277344 C 189.324219 150.367188 189.308594 150.464844 189.332031 150.570312 C 189.355469 150.675781 189.410156 150.761719 189.496094 150.820312 C 189.582031 150.878906 189.675781 150.898438 189.773438 150.878906 C 189.875 150.855469 189.949219 150.800781 190.003906 150.710938 L 199.375 135.5 C 199.476562 135.347656 199.472656 135.195312 199.363281 135.042969 C 199.253906 134.890625 199.117188 134.84375 198.949219 134.898438 Z M 198.949219 134.898438 " fill-opacity="1" fill-rule="nonzero"/></g></g></g><g clip-path="url(#2cc7768488)"><g clip-path="url(#e3cce89ee6)"><g clip-path="url(#ccecfe4204)"><path fill="#ff3131" d="M 121.214844 150.902344 C 121.066406 150.949219 120.984375 151.054688 120.964844 151.222656 C 120.949219 151.386719 121.003906 151.515625 121.140625 151.605469 L 135.007812 161.457031 C 135.09375 161.53125 135.1875 161.558594 135.296875 161.542969 C 135.402344 161.527344 135.488281 161.472656 135.546875 161.378906 C 135.605469 161.28125 135.617188 161.175781 135.589844 161.0625 C 135.558594 160.949219 135.496094 160.867188 135.398438 160.8125 L 121.53125 150.960938 C 121.433594 150.886719 121.328125 150.867188 121.214844 150.902344 Z M 121.214844 150.902344 " fill-opacity="1" fill-rule="nonzero"/></g></g></g><g clip-path="url(#68d4173bea)"><g clip-path="url(#6446addbed)"><g clip-path="url(#71a2ac1294)"><path fill="#ff3131" d="M 179.875 122.410156 C 179.707031 122.472656 179.628906 122.597656 179.636719 122.785156 C 179.636719 122.785156 179.808594 127.699219 180.570312 133.261719 C 180.949219 136.042969 181.472656 138.992188 182.203125 141.582031 C 182.929688 144.175781 183.855469 146.410156 185.097656 147.796875 C 185.167969 147.882812 185.253906 147.933594 185.363281 147.941406 C 185.46875 147.949219 185.558594 147.914062 185.636719 147.835938 C 185.710938 147.757812 185.75 147.664062 185.746094 147.550781 C 185.742188 147.4375 185.699219 147.339844 185.617188 147.265625 C 184.535156 146.058594 183.617188 143.910156 182.90625 141.375 C 182.191406 138.84375 181.671875 135.917969 181.296875 133.160156 C 180.542969 127.648438 180.371094 122.785156 180.371094 122.785156 C 180.367188 122.648438 180.3125 122.542969 180.207031 122.460938 C 180.105469 122.382812 179.992188 122.367188 179.875 122.410156 Z M 179.875 122.410156 " fill-opacity="1" fill-rule="nonzero"/></g></g></g><g clip-path="url(#5a65f69d29)"><path fill="#100f0d" d="M 206.761719 109.597656 C 206.636719 98.140625 215.824219 88.765625 227.285156 88.632812 C 238.753906 88.507812 248.152344 97.6875 248.273438 109.140625 C 248.398438 120.589844 239.210938 129.976562 227.742188 130.097656 C 216.28125 130.230469 206.882812 121.042969 206.761719 109.597656 " fill-opacity="1" fill-rule="nonzero"/></g><g clip-path="url(#766cc000f0)"><path fill="#100f0d" d="M 281.890625 256.417969 L 263.097656 244.894531 L 259.316406 225.820312 C 263.636719 222.449219 266.296875 217.347656 266.519531 211.828125 C 266.582031 210.34375 266.464844 208.855469 266.171875 207.402344 L 255.382812 153.226562 C 253.40625 143.183594 243.660156 136.652344 233.613281 138.628906 C 231.90625 138.960938 230.351562 139.609375 228.832031 140.257812 C 226.140625 141.414062 224.210938 143.675781 222.820312 146.132812 L 222.773438 146.207031 C 218.675781 153.511719 210.308594 164.15625 204.179688 169.859375 L 203.976562 170.042969 L 186.550781 168.339844 C 182.765625 167.960938 179.394531 170.738281 179.046875 174.527344 C 178.699219 178.304688 181.476562 181.636719 185.253906 181.984375 L 203.605469 183.667969 C 205.988281 183.890625 208.375 183.273438 210.347656 181.925781 L 222.773438 173.441406 L 232.820312 208.453125 C 233.667969 211.496094 232.464844 214.746094 229.820312 216.496094 L 210.476562 229.363281 C 208.152344 230.984375 206.714844 233.609375 206.597656 236.441406 L 204.984375 276.117188 C 204.757812 281.484375 208.941406 286.015625 214.308594 286.230469 C 219.679688 286.445312 224.210938 282.277344 224.433594 276.914062 L 225.640625 247.304688 L 241.851562 237.015625 L 244.039062 253.980469 C 244.632812 256.535156 246.589844 258.550781 249.117188 259.246094 L 277.230469 274.117188 C 282.136719 275.46875 287.199219 272.558594 288.503906 267.644531 C 289.820312 262.710938 286.433594 259.144531 281.890625 256.417969 " fill-opacity="1" fill-rule="nonzero"/></g></svg>