<svg xmlns="http://www.w3.org/2000/svg" xmlns:xlink="http://www.w3.org/1999/xlink" width="500" zoomAndPan="magnify" viewBox="0 0 375 374.999991" height="500" preserveAspectRatio="xMidYMid meet" version="1.0"><defs><clipPath id="acd09d1a8f"><path d="M 149.417969 113 L 225.167969 113 L 225.167969 310.738281 L 149.417969 310.738281 Z M 149.417969 113 " clip-rule="nonzero"/></clipPath><clipPath id="83dc4932e9"><path d="M 231.050781 123.425781 L 268 123.425781 L 268 211.175781 L 231.050781 211.175781 Z M 231.050781 123.425781 " clip-rule="nonzero"/></clipPath><clipPath id="7ce219aaba"><path d="M 107 137.753906 L 144.90625 137.753906 L 144.90625 206.753906 L 107 206.753906 Z M 107 137.753906 " clip-rule="nonzero"/></clipPath><clipPath id="97529d7a73"><path d="M 118.109375 107.410156 L 254.609375 107.410156 L 254.609375 237.160156 L 118.109375 237.160156 Z M 118.109375 107.410156 " clip-rule="nonzero"/></clipPath><clipPath id="58bd3d1e10"><path d="M 118.410156 150.101562 L 138.496094 172.621094 L 141.273438 172.621094 L 146.402344 167.226562 L 146.402344 234.785156 L 147.257812 237.128906 L 224.824219 236.894531 L 227.175781 235.253906 L 226.535156 167.929688 L 232.304688 173.558594 L 234.652344 173.089844 L 254.3125 151.039062 L 254.3125 147.753906 L 228.457031 119.605469 L 201.53125 107.40625 C 201.53125 107.40625 191.703125 118.902344 172.257812 107.875 L 146.613281 117.730469 L 118.40625 150.101562 Z M 118.410156 150.101562 " clip-rule="nonzero"/></clipPath><radialGradient gradientTransform="matrix(0, 1.177154, -0.822846, -0.0000188104, 770.002486, -167.773856)" gradientUnits="userSpaceOnUse" r="108.541736" cx="288.88074" id="5f122cb0b0" cy="709.298003" fx="288.88074" fy="709.298003"><stop stop-opacity="1" stop-color="rgb(49.398804%, 85.099792%, 34.098816%)" offset="0"/><stop stop-opacity="1" stop-color="rgb(49.398804%, 85.099792%, 34.098816%)" offset="1"/></radialGradient></defs><path fill="#000000" d="M 210.234375 86.703125 C 210.234375 87.445312 210.199219 88.1875 210.125 88.925781 C 210.050781 89.664062 209.941406 90.398438 209.796875 91.128906 C 209.652344 91.855469 209.472656 92.574219 209.257812 93.285156 C 209.039062 93.996094 208.789062 94.695312 208.503906 95.382812 C 208.222656 96.066406 207.902344 96.738281 207.550781 97.390625 C 207.203125 98.046875 206.820312 98.683594 206.40625 99.300781 C 205.992188 99.917969 205.550781 100.515625 205.078125 101.089844 C 204.605469 101.664062 204.109375 102.210938 203.582031 102.738281 C 203.054688 103.261719 202.507812 103.761719 201.929688 104.230469 C 201.355469 104.703125 200.757812 105.144531 200.140625 105.558594 C 199.523438 105.96875 198.886719 106.351562 198.230469 106.699219 C 197.574219 107.050781 196.902344 107.367188 196.214844 107.652344 C 195.527344 107.9375 194.828125 108.1875 194.117188 108.402344 C 193.402344 108.617188 192.683594 108.796875 191.953125 108.941406 C 191.222656 109.085938 190.488281 109.195312 189.75 109.269531 C 189.007812 109.34375 188.265625 109.378906 187.523438 109.378906 C 186.78125 109.378906 186.039062 109.34375 185.296875 109.269531 C 184.558594 109.195312 183.820312 109.085938 183.09375 108.941406 C 182.363281 108.796875 181.640625 108.617188 180.929688 108.402344 C 180.21875 108.1875 179.519531 107.9375 178.832031 107.652344 C 178.144531 107.367188 177.472656 107.050781 176.816406 106.699219 C 176.160156 106.351562 175.523438 105.96875 174.90625 105.558594 C 174.289062 105.144531 173.691406 104.703125 173.117188 104.230469 C 172.539062 103.761719 171.988281 103.261719 171.464844 102.738281 C 170.9375 102.210938 170.4375 101.664062 169.96875 101.089844 C 169.496094 100.515625 169.054688 99.917969 168.640625 99.300781 C 168.226562 98.683594 167.84375 98.046875 167.492188 97.390625 C 167.144531 96.738281 166.824219 96.066406 166.542969 95.382812 C 166.257812 94.695312 166.007812 93.996094 165.789062 93.285156 C 165.574219 92.574219 165.394531 91.855469 165.25 91.128906 C 165.105469 90.398438 164.996094 89.664062 164.921875 88.925781 C 164.847656 88.1875 164.8125 87.445312 164.8125 86.703125 C 164.8125 85.960938 164.847656 85.21875 164.921875 84.480469 C 164.996094 83.742188 165.105469 83.007812 165.25 82.28125 C 165.394531 81.550781 165.574219 80.832031 165.789062 80.121094 C 166.007812 79.410156 166.257812 78.710938 166.542969 78.027344 C 166.824219 77.339844 167.144531 76.671875 167.492188 76.015625 C 167.84375 75.359375 168.226562 74.722656 168.640625 74.105469 C 169.054688 73.488281 169.496094 72.894531 169.96875 72.320312 C 170.4375 71.746094 170.9375 71.195312 171.464844 70.671875 C 171.988281 70.144531 172.539062 69.648438 173.117188 69.175781 C 173.691406 68.707031 174.289062 68.261719 174.90625 67.851562 C 175.523438 67.4375 176.160156 67.058594 176.816406 66.707031 C 177.472656 66.355469 178.144531 66.039062 178.832031 65.753906 C 179.519531 65.472656 180.21875 65.222656 180.929688 65.003906 C 181.640625 64.789062 182.363281 64.609375 183.09375 64.464844 C 183.820312 64.320312 184.558594 64.210938 185.296875 64.136719 C 186.039062 64.066406 186.78125 64.03125 187.523438 64.03125 C 188.265625 64.03125 189.007812 64.066406 189.75 64.136719 C 190.488281 64.210938 191.222656 64.320312 191.953125 64.464844 C 192.683594 64.609375 193.402344 64.789062 194.117188 65.003906 C 194.828125 65.222656 195.527344 65.472656 196.214844 65.753906 C 196.902344 66.039062 197.574219 66.355469 198.230469 66.707031 C 198.886719 67.058594 199.523438 67.4375 200.140625 67.851562 C 200.757812 68.261719 201.355469 68.707031 201.929688 69.175781 C 202.507812 69.648438 203.054688 70.144531 203.582031 70.671875 C 204.109375 71.195312 204.605469 71.746094 205.078125 72.320312 C 205.550781 72.894531 205.992188 73.488281 206.40625 74.105469 C 206.820312 74.722656 207.203125 75.359375 207.550781 76.015625 C 207.902344 76.671875 208.222656 77.339844 208.503906 78.027344 C 208.789062 78.710938 209.039062 79.410156 209.257812 80.121094 C 209.472656 80.832031 209.652344 81.550781 209.796875 82.28125 C 209.941406 83.007812 210.050781 83.742188 210.125 84.480469 C 210.199219 85.21875 210.234375 85.960938 210.234375 86.703125 Z M 210.234375 86.703125 " fill-opacity="1" fill-rule="nonzero"/><g clip-path="url(#acd09d1a8f)"><path fill="#000000" d="M 253.246094 192.917969 L 252.671875 191.339844 C 244.027344 167.628906 233.328125 144.71875 220.691406 122.867188 C 217.277344 116.960938 210.960938 113.320312 204.128906 113.320312 L 170.917969 113.320312 C 164.085938 113.320312 157.769531 116.960938 154.355469 122.867188 C 141.71875 144.71875 131.019531 167.628906 122.375 191.339844 L 121.800781 192.917969 C 120.023438 197.792969 122.542969 203.15625 127.40625 204.921875 C 132.269531 206.691406 137.652344 204.199219 139.429688 199.324219 C 145.109375 183.75 151.695312 168.527344 159.117188 153.714844 C 159.304688 153.34375 159.875 153.476562 159.875 153.894531 L 159.875 297.652344 C 159.875 304.398438 165.082031 310.28125 171.839844 310.484375 C 178.828125 310.695312 184.5625 305.097656 184.5625 298.167969 L 184.5625 205.003906 C 184.5625 203.371094 185.886719 202.046875 187.523438 202.046875 C 189.160156 202.046875 190.484375 203.371094 190.484375 205.003906 L 190.484375 297.652344 C 190.484375 304.398438 195.695312 310.28125 202.449219 310.484375 C 209.4375 310.695312 215.171875 305.097656 215.171875 298.167969 L 215.171875 153.894531 C 215.171875 153.476562 215.742188 153.34375 215.929688 153.714844 C 223.351562 168.527344 229.9375 183.75 235.617188 199.324219 C 237.394531 204.199219 242.777344 206.691406 247.640625 204.921875 C 252.503906 203.15625 255.023438 197.792969 253.246094 192.917969 Z M 253.246094 192.917969 " fill-opacity="1" fill-rule="nonzero"/></g><g clip-path="url(#83dc4932e9)"><path fill="#000000" d="M 266.644531 197.074219 L 266.066406 195.492188 C 257.425781 171.785156 246.726562 148.871094 234.089844 127.023438 C 230.671875 121.113281 224.359375 117.476562 217.527344 117.476562 L 184.3125 117.476562 C 177.480469 117.476562 171.167969 121.113281 167.75 127.023438 C 155.113281 148.871094 144.414062 171.785156 135.769531 195.492188 L 135.195312 197.074219 C 133.417969 201.945312 135.941406 207.308594 140.800781 209.078125 C 145.664062 210.84375 151.046875 208.351562 152.824219 203.480469 C 158.503906 187.902344 165.089844 172.679688 172.511719 157.867188 C 172.699219 157.496094 173.269531 157.632812 173.269531 158.046875 L 173.269531 301.804688 C 173.269531 308.550781 178.480469 314.4375 185.234375 314.636719 C 192.226562 314.847656 197.957031 309.253906 197.957031 302.320312 L 197.957031 209.160156 C 197.957031 207.527344 199.285156 206.203125 200.917969 206.203125 C 202.554688 206.203125 203.882812 207.527344 203.882812 209.160156 L 203.882812 301.804688 C 203.882812 308.550781 209.089844 314.4375 215.84375 314.636719 C 222.835938 314.847656 228.566406 309.253906 228.566406 302.320312 L 228.566406 158.046875 C 228.566406 157.632812 229.140625 157.496094 229.328125 157.867188 C 236.746094 172.679688 243.335938 187.902344 249.011719 203.480469 C 250.789062 208.351562 256.175781 210.84375 261.035156 209.078125 C 265.898438 207.308594 268.417969 201.945312 266.644531 197.074219 Z M 266.644531 197.074219 " fill-opacity="1" fill-rule="nonzero"/></g><g clip-path="url(#7ce219aaba)"><path fill="#000000" d="M 239.894531 194.183594 L 239.316406 192.605469 C 230.675781 168.894531 219.972656 145.984375 207.335938 124.132812 C 203.921875 118.226562 197.609375 114.585938 190.777344 114.585938 L 157.5625 114.585938 C 150.730469 114.585938 144.414062 118.226562 141 124.132812 C 128.363281 145.984375 117.664062 168.894531 109.019531 192.605469 L 108.445312 194.183594 C 106.667969 199.058594 109.1875 204.421875 114.050781 206.1875 C 118.914062 207.953125 124.296875 205.464844 126.074219 200.589844 C 131.753906 185.015625 138.339844 169.792969 145.761719 154.980469 C 145.949219 154.605469 146.519531 154.742188 146.519531 155.160156 L 146.519531 298.914062 C 146.519531 305.664062 151.726562 311.546875 158.484375 311.75 C 165.472656 311.957031 171.207031 306.363281 171.207031 299.433594 L 171.207031 206.269531 C 171.207031 204.636719 172.53125 203.3125 174.167969 203.3125 C 175.804688 203.3125 177.132812 204.636719 177.132812 206.269531 L 177.132812 298.914062 C 177.132812 305.664062 182.339844 311.546875 189.09375 311.75 C 196.085938 311.957031 201.816406 306.363281 201.816406 299.433594 L 201.816406 155.160156 C 201.816406 154.742188 202.386719 154.605469 202.574219 154.980469 C 209.996094 169.792969 216.585938 185.015625 222.261719 200.589844 C 224.039062 205.464844 229.425781 207.953125 234.285156 206.1875 C 239.148438 204.421875 241.667969 199.058594 239.894531 194.183594 Z M 239.894531 194.183594 " fill-opacity="1" fill-rule="nonzero"/></g><g clip-path="url(#97529d7a73)"><g clip-path="url(#58bd3d1e10)"><path fill="url(#5f122cb0b0)" d="M 254.3125 107.410156 L 118.40625 107.40625 L 118.40625 237.128906 L 254.3125 237.132812 Z M 254.3125 107.410156 " fill-rule="nonzero"/></g></g><path fill="#77b255" d="M 147.144531 119.667969 C 146.992188 119.699219 146.867188 119.78125 146.773438 119.917969 C 146.679688 120.054688 146.644531 120.207031 146.660156 120.375 C 146.660156 120.375 147.351562 129.691406 147.726562 139.464844 C 147.914062 144.355469 148.011719 149.347656 147.914062 153.335938 C 147.863281 155.332031 147.761719 157.082031 147.59375 158.417969 C 147.429688 159.753906 147.15625 160.707031 146.996094 160.9375 C 146.894531 161.078125 146.855469 161.238281 146.875 161.417969 C 146.898438 161.597656 146.976562 161.738281 147.105469 161.847656 C 147.238281 161.957031 147.386719 162 147.550781 161.976562 C 147.71875 161.953125 147.851562 161.867188 147.949219 161.722656 C 148.433594 161.03125 148.617188 160.011719 148.792969 158.597656 C 148.964844 157.1875 149.058594 155.398438 149.109375 153.378906 C 149.210938 149.332031 149.109375 144.308594 148.921875 139.40625 C 148.546875 129.597656 147.855469 120.253906 147.855469 120.253906 C 147.84375 120.058594 147.765625 119.90625 147.625 119.789062 C 147.480469 119.671875 147.320312 119.632812 147.144531 119.667969 Z M 147.144531 119.667969 " fill-opacity="1" fill-rule="nonzero"/><path fill="#77b255" d="M 167.042969 110.675781 C 166.878906 110.703125 166.75 110.785156 166.652344 110.929688 C 166.550781 111.070312 166.515625 111.226562 166.535156 111.402344 C 166.535156 111.402344 167.132812 116.410156 169.941406 121.199219 C 172.746094 125.992188 177.894531 130.605469 186.636719 129.710938 C 195.707031 128.777344 200.496094 125.882812 203.203125 122.390625 C 205.910156 118.898438 206.511719 114.917969 207.445312 112.007812 C 207.5 111.839844 207.492188 111.671875 207.417969 111.511719 C 207.34375 111.351562 207.230469 111.242188 207.070312 111.183594 C 206.914062 111.125 206.761719 111.136719 206.613281 111.214844 C 206.464844 111.292969 206.363281 111.414062 206.308594 111.585938 C 205.316406 114.664062 204.742188 118.375 202.269531 121.5625 C 199.792969 124.753906 195.402344 127.507812 186.523438 128.417969 C 178.203125 129.273438 173.597656 125.035156 170.949219 120.515625 C 168.300781 115.996094 167.714844 111.242188 167.714844 111.242188 C 167.695312 111.0625 167.617188 110.917969 167.488281 110.808594 C 167.355469 110.695312 167.207031 110.652344 167.039062 110.675781 Z M 167.042969 110.675781 " fill-opacity="1" fill-rule="nonzero"/><path fill="#77b255" d="M 171.824219 110.191406 L 170.890625 110.976562 C 170.914062 111.015625 170.941406 111.039062 170.964844 111.078125 C 174.523438 117.3125 178.359375 120.582031 182.148438 121.863281 C 185.960938 123.152344 189.652344 122.40625 192.84375 120.894531 C 199.21875 117.871094 203.707031 111.722656 203.707031 111.722656 L 202.976562 110.753906 C 192.621094 116.453125 184.828125 116.257812 179.621094 114.6875 C 174.417969 113.113281 171.824219 110.191406 171.824219 110.191406 Z M 200.65625 113.335938 C 198.863281 115.324219 196.222656 117.902344 192.375 119.726562 C 189.367188 121.152344 185.980469 121.808594 182.503906 120.632812 C 179.691406 119.683594 176.785156 117.414062 173.9375 113.394531 C 175.296875 114.277344 177.015625 115.222656 179.304688 115.914062 C 184.277344 117.417969 191.472656 117.644531 200.65625 113.335938 Z M 200.65625 113.335938 " fill-opacity="1" fill-rule="nonzero"/><path fill="#77b255" d="M 148.265625 231.183594 C 148.101562 231.191406 147.960938 231.261719 147.851562 231.390625 C 147.738281 231.523438 147.6875 231.679688 147.695312 231.859375 C 147.703125 232.035156 147.769531 232.1875 147.890625 232.304688 C 148.011719 232.425781 148.15625 232.480469 148.324219 232.472656 L 225.675781 232.714844 C 225.839844 232.71875 225.984375 232.65625 226.101562 232.527344 C 226.222656 232.402344 226.28125 232.25 226.28125 232.070312 C 226.28125 231.890625 226.222656 231.738281 226.101562 231.609375 C 225.984375 231.484375 225.839844 231.421875 225.675781 231.425781 L 148.324219 231.183594 C 148.304688 231.183594 148.285156 231.183594 148.265625 231.183594 Z M 148.265625 231.183594 " fill-opacity="1" fill-rule="nonzero"/><path fill="#77b255" d="M 252.113281 147.308594 C 251.972656 147.328125 251.855469 147.398438 251.757812 147.507812 L 231.660156 168.941406 C 231.542969 169.070312 231.484375 169.222656 231.488281 169.402344 C 231.488281 169.582031 231.550781 169.734375 231.667969 169.859375 C 231.789062 169.984375 231.929688 170.046875 232.09375 170.042969 C 232.261719 170.042969 232.402344 169.976562 232.519531 169.847656 L 252.601562 148.417969 C 252.8125 148.203125 252.855469 147.953125 252.730469 147.671875 C 252.605469 147.390625 252.402344 147.269531 252.113281 147.308594 Z M 252.113281 147.308594 " fill-opacity="1" fill-rule="nonzero"/><path fill="#77b255" d="M 121.980469 147.308594 C 121.726562 147.335938 121.554688 147.476562 121.472656 147.738281 C 121.390625 148 121.441406 148.226562 121.625 148.417969 L 140.640625 168.921875 C 140.753906 169.070312 140.898438 169.148438 141.074219 169.160156 C 141.253906 169.171875 141.40625 169.109375 141.53125 168.972656 C 141.65625 168.835938 141.714844 168.671875 141.703125 168.480469 C 141.695312 168.289062 141.621094 168.132812 141.480469 168.011719 L 122.464844 147.507812 C 122.335938 147.359375 122.171875 147.289062 121.980469 147.308594 Z M 121.980469 147.308594 " fill-opacity="1" fill-rule="nonzero"/><path fill="#77b255" d="M 225.605469 120.816406 C 225.320312 120.859375 225.152344 121.035156 225.101562 121.339844 C 225.101562 121.339844 223.753906 129.328125 223.136719 138.558594 C 222.828125 143.171875 222.691406 148.105469 223.007812 152.527344 C 223.320312 156.953125 224.066406 160.871094 225.605469 163.515625 C 225.6875 163.683594 225.8125 163.789062 225.980469 163.839844 C 226.148438 163.886719 226.308594 163.863281 226.453125 163.761719 C 226.601562 163.664062 226.691406 163.519531 226.722656 163.335938 C 226.757812 163.148438 226.71875 162.980469 226.617188 162.832031 C 225.273438 160.523438 224.511719 156.753906 224.203125 152.425781 C 223.898438 148.101562 224.027344 143.210938 224.335938 138.636719 C 224.945312 129.488281 226.277344 121.582031 226.277344 121.582031 C 226.296875 121.476562 226.292969 121.375 226.269531 121.277344 C 226.242188 121.175781 226.195312 121.085938 226.128906 121.011719 C 226.058594 120.933594 225.980469 120.878906 225.886719 120.84375 C 225.796875 120.808594 225.703125 120.800781 225.605469 120.816406 Z M 225.605469 120.816406 " fill-opacity="1" fill-rule="nonzero"/></svg>